<svg id="svgexport-10_15_" data-name="svgexport-10 (15)" xmlns="http://www.w3.org/2000/svg" width="20" height="20" viewBox="0 0 20 20">
  <g id="Group_6570" data-name="Group 6570">
    <g id="Group_6569" data-name="Group 6569">
      <path id="Path_17215" data-name="Path 17215" d="M18.242,0H1.758A1.785,1.785,0,0,0,0,1.806V4.857H20V1.806A1.785,1.785,0,0,0,18.242,0ZM2.93,3.613a.6.6,0,1,1,.586-.6A.594.594,0,0,1,2.93,3.613Zm2.344,0a.6.6,0,1,1,.586-.6A.594.594,0,0,1,5.273,3.613Zm2.344,0a.6.6,0,1,1,.586-.6A.594.594,0,0,1,7.617,3.613Z" fill="#97191d"/>
    </g>
  </g>
  <g id="Group_6572" data-name="Group 6572" transform="translate(0 6.061)">
    <g id="Group_6571" data-name="Group 6571">
      <path id="Path_17216" data-name="Path 17216" d="M0,151v12.2a1.75,1.75,0,0,0,1.758,1.738H18.242A1.75,1.75,0,0,0,20,163.2V151Zm2.344,1.776a.582.582,0,0,1,.586-.579H8.789a.582.582,0,0,1,.586.579v4.633a.582.582,0,0,1-.586.579H2.93a.582.582,0,0,1-.586-.579Zm14.727,9.846H2.93a.579.579,0,1,1,0-1.158H17.07a.579.579,0,1,1,0,1.158Zm0-2.317H2.93a.579.579,0,1,1,0-1.158H17.07a.579.579,0,1,1,0,1.158Zm0-2.317H11.133a.579.579,0,1,1,0-1.158H17.07a.579.579,0,1,1,0,1.158Zm0-2.317H11.133a.579.579,0,1,1,0-1.158H17.07a.579.579,0,1,1,0,1.158Z" transform="translate(0 -151)" fill="#97191d"/>
    </g>
  </g>
  <g id="Group_6574" data-name="Group 6574" transform="translate(3.486 8.232)">
    <g id="Group_6573" data-name="Group 6573">
      <rect id="Rectangle_17295" data-name="Rectangle 17295" width="4.817" height="3.613" fill="#97191d"/>
    </g>
  </g>
</svg>
