<svg id="Group_6178" data-name="Group 6178" xmlns="http://www.w3.org/2000/svg" width="20.527" height="21.391" viewBox="0 0 20.527 21.391">
  <path id="Path_16603" data-name="Path 16603" d="M155.4,142.642c-.136.1-.271.211-.4.322a.313.313,0,0,0,.411.473c.117-.1.239-.2.363-.294a.313.313,0,1,0-.376-.5Z" transform="translate(-148.856 -136.623)" fill="#97191d"/>
  <path id="Path_16604" data-name="Path 16604" d="M226.982,428.825c-.154-.022-.308-.05-.46-.082a.313.313,0,0,0-.133.612c.166.036.336.067.505.09a.313.313,0,1,0,.088-.62Z" transform="translate(-217.126 -410.823)" fill="#97191d"/>
  <path id="Path_16605" data-name="Path 16605" d="M317.231,417.9c-.141.065-.286.125-.431.179a.313.313,0,1,0,.218.587c.159-.059.319-.125.473-.2a.313.313,0,0,0-.261-.57Z" transform="translate(-303.801 -400.411)" fill="#97191d"/>
  <path id="Path_16606" data-name="Path 16606" d="M272.584,430.776c-.154.022-.31.039-.465.049a.313.313,0,0,0,.021.626h.022c.17-.012.341-.03.51-.054a.313.313,0,1,0-.089-.62Z" transform="translate(-260.903 -412.775)" fill="#97191d"/>
  <path id="Path_16607" data-name="Path 16607" d="M184.107,412.937c-.141-.064-.282-.135-.418-.21a.313.313,0,0,0-.3.55c.149.082.3.159.459.23a.313.313,0,0,0,.26-.57Z" transform="translate(-176.002 -395.447)" fill="#97191d"/>
  <path id="Path_16608" data-name="Path 16608" d="M327.965,125.115c-.15-.082-.3-.159-.459-.23a.313.313,0,0,0-.26.57c.141.064.282.135.418.209a.313.313,0,1,0,.3-.55Z" transform="translate(-313.83 -119.641)" fill="#97191d"/>
  <path id="Path_16609" data-name="Path 16609" d="M357.279,393.143c-.117.1-.24.2-.364.293a.313.313,0,1,0,.375.5c.136-.1.271-.21.4-.322a.313.313,0,0,0-.411-.473Z" transform="translate(-342.315 -376.644)" fill="#97191d"/>
  <path id="Path_16610" data-name="Path 16610" d="M147.467,385.6c-.117-.1-.232-.209-.342-.319a.313.313,0,1,0-.443.443c.12.121.247.238.375.35a.313.313,0,1,0,.41-.474Z" transform="translate(-140.897 -369.094)" fill="#97191d"/>
  <path id="Path_16611" data-name="Path 16611" d="M414.869,226.13c.044.149.083.3.116.452a.313.313,0,0,0,.306.247.317.317,0,0,0,.067-.007.313.313,0,0,0,.24-.373c-.036-.167-.079-.334-.127-.5a.313.313,0,0,0-.6.178Z" transform="translate(-397.956 -216.297)" fill="#97191d"/>
  <path id="Path_16612" data-name="Path 16612" d="M396.009,185.007a.313.313,0,0,0,.55-.3c-.082-.149-.17-.3-.263-.44a.313.313,0,1,0-.526.34c.084.13.165.265.239.4Z" transform="translate(-379.619 -176.43)" fill="#97191d"/>
  <path id="Path_16613" data-name="Path 16613" d="M238.055,110.891c-.17.012-.342.03-.51.055a.313.313,0,1,0,.09.62c.153-.022.309-.039.465-.05a.313.313,0,0,0-.044-.625Z" transform="translate(-227.796 -106.257)" fill="#97191d"/>
  <path id="Path_16614" data-name="Path 16614" d="M283.942,112.151c-.166-.036-.336-.066-.505-.09a.313.313,0,0,0-.087.621c.154.022.309.049.46.082a.313.313,0,0,0,.372-.24A.313.313,0,0,0,283.942,112.151Z" transform="translate(-271.685 -107.377)" fill="#97191d"/>
  <path id="Path_16615" data-name="Path 16615" d="M119.729,348.689a.313.313,0,1,0-.55.3c.082.149.17.3.262.441a.313.313,0,1,0,.527-.34C119.884,348.96,119.8,348.825,119.729,348.689Z" transform="translate(-114.595 -333.964)" fill="#97191d"/>
  <path id="Path_16616" data-name="Path 16616" d="M194.016,120.624c-.159.059-.318.126-.473.2a.313.313,0,1,0,.262.569c.141-.065.286-.125.431-.179a.313.313,0,1,0-.219-.587Z" transform="translate(-185.713 -115.565)" fill="#97191d"/>
  <path id="Path_16617" data-name="Path 16617" d="M103.887,306.306c-.044-.149-.083-.3-.115-.453a.313.313,0,1,0-.613.132c.036.167.079.334.127.5a.313.313,0,0,0,.6-.177Z" transform="translate(-99.275 -292.838)" fill="#97191d"/>
  <path id="Path_16618" data-name="Path 16618" d="M100.148,260.723v-.008c0-.153.005-.307.016-.459a.313.313,0,1,0-.625-.044c-.012.167-.018.336-.018.506v.006a.313.313,0,1,0,.627,0Z" transform="translate(-95.795 -249.06)" fill="#97191d"/>
  <path id="Path_16619" data-name="Path 16619" d="M106.164,216.241a.313.313,0,0,0,.389-.213c.043-.149.093-.3.147-.443a.313.313,0,0,0-.587-.219c-.06.159-.114.323-.162.487A.313.313,0,0,0,106.164,216.241Z" transform="translate(-101.944 -206.172)" fill="#97191d"/>
  <path id="Path_16620" data-name="Path 16620" d="M366.533,150.006c-.12-.12-.247-.238-.376-.349a.313.313,0,1,0-.41.474c.117.1.233.208.342.318a.313.313,0,1,0,.443-.443Z" transform="translate(-350.794 -143.331)" fill="#97191d"/>
  <path id="Path_16621" data-name="Path 16621" d="M411.812,316.8a.314.314,0,0,0-.389.213c-.044.149-.093.3-.148.443a.313.313,0,1,0,.587.22c.06-.159.114-.323.162-.487A.313.313,0,0,0,411.812,316.8Z" transform="translate(-394.506 -303.548)" fill="#97191d"/>
  <path id="Path_16622" data-name="Path 16622" d="M389.983,358.5a.313.313,0,0,0-.433.094c-.084.131-.174.26-.267.384a.313.313,0,1,0,.5.377c.1-.136.2-.278.293-.421A.313.313,0,0,0,389.983,358.5Z" transform="translate(-373.39 -343.471)" fill="#97191d"/>
  <path id="Path_16623" data-name="Path 16623" d="M421.353,271.055h0a.313.313,0,0,0-.312.315v.015c0,.156-.006.313-.017.467a.313.313,0,0,0,.29.335h.023a.313.313,0,0,0,.312-.291c.012-.169.018-.342.018-.512v-.018A.313.313,0,0,0,421.353,271.055Z" transform="translate(-403.864 -259.73)" fill="#97191d"/>
  <path id="Path_16624" data-name="Path 16624" d="M209.152,271.162a1.814,1.814,0,0,0,.884-3.4.313.313,0,0,0-.306.547,1.188,1.188,0,1,1-1.156,0,.313.313,0,0,0-.306-.547,1.814,1.814,0,0,0,.884,3.4Z" transform="translate(-199.108 -256.538)" fill="#97191d"/>
  <path id="Path_16625" data-name="Path 16625" d="M22.829,2.057a.108.108,0,0,1-.085-.107V1.093a.937.937,0,0,0-.369-.749.948.948,0,0,0-.829-.161,1,1,0,0,0-.437.249,1,1,0,0,0-.437-.249.948.948,0,0,0-.829.161.937.937,0,0,0-.369.749v.856a.108.108,0,0,1-.085.107,10.169,10.169,0,0,0-4.876,2.494l-.5-.776A.838.838,0,0,0,14.363,2.6L14.27,2.46l.336-.131c.982-.38,1.758-.679,2.006-1.215A.876.876,0,0,0,16.6.383a.674.674,0,0,0-.449-.374.313.313,0,1,0-.148.609c.012,0,.025.022.032.038a.248.248,0,0,1,0,.2c-.141.306-.915.6-1.663.894l-.458.179-.282-.436a.831.831,0,0,0-1.156-.194l-.639.414a.831.831,0,0,0-.3,1.134l.158.244a3.148,3.148,0,0,0-1.362,2.335,2.138,2.138,0,0,0,1.082,1.708,3.537,3.537,0,0,0,.887.362,9.423,9.423,0,0,0-.968,4.138,9.763,9.763,0,1,0,19.526,0,9.946,9.946,0,0,0-8.043-9.572Zm-3.317.615a.737.737,0,0,0,.589-.722V1.093a.317.317,0,0,1,.317-.317.359.359,0,0,1,.093.013.4.4,0,0,1,.285.389V2.855a.382.382,0,0,1-.346.315,8.814,8.814,0,0,0-5.243,2.451l-.356-.55A9.514,9.514,0,0,1,19.511,2.671ZM15.474,7.189c-.251,0-.517,0-.79-.009q.2-.283.429-.549Zm-.714-1.1a8.751,8.751,0,0,0-.8,1.049c-.24-.021-.478-.049-.706-.085A9.277,9.277,0,0,1,14.4,5.527ZM12.186,2.233l.639-.414a.218.218,0,0,1,.289.009l.723,1.117c.042.065,0,.193-.111.268l-.639.414a.219.219,0,0,1-.289-.009l-.232-.359c.085-.051.174-.1.266-.152a.313.313,0,0,0,.52-.349l-.265-.41a.313.313,0,0,0-.573.218q-.15.082-.289.167l-.15-.231C12.032,2.434,12.072,2.307,12.186,2.233Zm-.432,4.36a1.511,1.511,0,0,1-.782-1.187A2.458,2.458,0,0,1,12.05,3.614l.223.344a.837.837,0,0,0,1.213.158L14.056,5a9.869,9.869,0,0,0-1.441,1.925A3.162,3.162,0,0,1,11.754,6.594Zm9.355,14.171a9.131,9.131,0,0,1-9.136-9.136,8.839,8.839,0,0,1,.96-4c.224.04.451.072.675.1a8.178,8.178,0,0,0-1,3.9,8.5,8.5,0,0,0,16.978.669.313.313,0,0,0-.625-.049,7.876,7.876,0,0,1-15.727-.621,7.583,7.583,0,0,1,1.058-3.842c.352.022.67.029.917.03l-.027.041a.313.313,0,0,0,.527.338c.068-.106.14-.21.215-.312l1.733,2.677a1.671,1.671,0,0,0-.382.451,1.689,1.689,0,0,0,.074,1.8,1.682,1.682,0,0,0,1.52,2.633,1.682,1.682,0,0,0,3.04,0,1.682,1.682,0,0,0,1.52-2.633,1.664,1.664,0,0,0,.144-.256,2.213,2.213,0,0,0,2.379-.865.667.667,0,0,0,.022-.737h0A2.211,2.211,0,0,0,24.158,9.9h-.033a3.09,3.09,0,0,0-.109-2.776A.83.83,0,0,0,23.2,6.7a3.1,3.1,0,0,0-2.734,2.519l-.079,0a1.689,1.689,0,0,0-1.52.963,1.675,1.675,0,0,0-.662.08L16.618,7.8c.506.023,1.049.11,1.216.384a.313.313,0,0,0,.535-.326c-.386-.633-1.4-.7-2.161-.692l-.655-1.011a8.193,8.193,0,0,1,4.96-2.363,1.047,1.047,0,0,0,.6-.268,1.047,1.047,0,0,0,.6.268,8.152,8.152,0,0,1,7.238,7.05.313.313,0,0,0,.623-.066,8.738,8.738,0,0,0-7.8-7.608.382.382,0,0,1-.346-.315V1.178a.4.4,0,0,1,.285-.389.321.321,0,0,1,.286.053.315.315,0,0,1,.124.252v.856a.737.737,0,0,0,.589.722,9.262,9.262,0,0,1,7.539,8.958,9.131,9.131,0,0,1-9.136,9.136Zm-3.243-8.31A1.055,1.055,0,0,1,18.82,10.8a.624.624,0,0,0,.614-.355,1.055,1.055,0,0,1,1.91,0,.624.624,0,0,0,.518.355,1.09,1.09,0,0,1,1.214.825,1.063,1.063,0,0,1-.164.828.624.624,0,0,0,0,.709,1.055,1.055,0,0,1-.955,1.654.624.624,0,0,0-.614.355,1.055,1.055,0,0,1-1.91,0,.625.625,0,0,0-.563-.357l-.051,0a1.055,1.055,0,0,1-.955-1.654.624.624,0,0,0,0-.709Zm5.1-2.009a1.706,1.706,0,0,0-.72-.262l.9-1.709a.313.313,0,0,0-.555-.291l-.877,1.672a1.675,1.675,0,0,0-.633-.494,2.471,2.471,0,0,1,2.187-2.041.206.206,0,0,1,.2.106h0A2.465,2.465,0,0,1,22.968,10.446Zm.736,1.119,1.009.031h.01a.313.313,0,0,0,.009-.627l-1.278-.039-.032-.048a3.344,3.344,0,0,0,.288-.31,1.589,1.589,0,0,1,1.733.708.042.042,0,0,1,0,.046,1.589,1.589,0,0,1-1.715.619A1.665,1.665,0,0,0,23.7,11.565Z" transform="translate(-10.345 0)" fill="#97191d"/>
</svg>
