<svg id="Iconly_Bold_Camera" data-name="Iconly/Bold/Camera" xmlns="http://www.w3.org/2000/svg" width="24" height="21.6" viewBox="0 0 24 21.6">
  <g id="Camera">
    <path id="Camera-2" data-name="Camera" d="M18.768,21.6H5.232A5.235,5.235,0,0,1,0,16.374V9.254A5.235,5.235,0,0,1,5.232,4.027a.237.237,0,0,0,.229-.144l.071-.144.1-.21c.314-.661.668-1.407.884-1.84A2.92,2.92,0,0,1,9.168,0H14.82a2.929,2.929,0,0,1,2.664,1.69c.189.377.476.984.753,1.57l.17.36.121.264a.271.271,0,0,0,.24.144A5.235,5.235,0,0,1,24,9.254v7.121A5.235,5.235,0,0,1,18.768,21.6ZM12,7.683A4.706,4.706,0,0,0,8.652,9.074a4.641,4.641,0,0,0-1.368,3.32A4.709,4.709,0,0,0,12,17.105a4.675,4.675,0,0,0,3.324-1.378,4.7,4.7,0,0,0,.012-6.665A4.686,4.686,0,0,0,12,7.683ZM18.732,7.4a1.085,1.085,0,1,0,1.093,1.091A1.087,1.087,0,0,0,18.732,7.4ZM12,15.307a2.908,2.908,0,0,1-2.916-2.913v-.012a2.8,2.8,0,0,1,.84-2.038A2.916,2.916,0,1,1,12,15.307Z" fill="#121212"/>
  </g>
</svg>
