<svg xmlns="http://www.w3.org/2000/svg" xmlns:xlink="http://www.w3.org/1999/xlink" width="332" height="210" viewBox="0 0 332 210">
  <defs>
    <linearGradient id="linear-gradient" x1="-0.091" y1="2.456" x2="1.091" y2="-1.456" gradientUnits="objectBoundingBox">
      <stop offset="0" stop-color="#9122fc"/>
      <stop offset="0.53" stop-color="#ff71a5"/>
      <stop offset="1" stop-color="#fead6e"/>
    </linearGradient>
    <clipPath id="clip-path">
      <rect id="vectorMask" width="332" height="210" rx="18" transform="translate(0 -0.315)" fill="none"/>
    </clipPath>
    <linearGradient id="linear-gradient-2" x1="1.21" y1="0.883" x2="-0.21" y2="0.117" gradientUnits="objectBoundingBox">
      <stop offset="0" stop-color="#ff829c"/>
      <stop offset="1" stop-color="#ffd0a0"/>
    </linearGradient>
    <linearGradient id="linear-gradient-3" x1="0.127" y1="1.219" x2="0.873" y2="-0.219" xlink:href="#linear-gradient-2"/>
    <linearGradient id="linear-gradient-4" x1="-0.335" y1="0.072" x2="1.335" y2="0.928" gradientUnits="objectBoundingBox">
      <stop offset="0" stop-color="#007adf"/>
      <stop offset="1" stop-color="#00ecbc"/>
    </linearGradient>
    <linearGradient id="linear-gradient-5" x1="1.31" y1="0.584" x2="-0.31" y2="0.416" gradientUnits="objectBoundingBox">
      <stop offset="0" stop-color="#9e65da"/>
      <stop offset="1" stop-color="#ee609c"/>
    </linearGradient>
  </defs>
  <g id="Card_1" data-name="Card 1" transform="translate(0 0.315)">
    <rect id="Rectangle" width="332" height="210" rx="18" transform="translate(0 -0.315)" fill="url(#linear-gradient)"/>
    <g id="Mask_by_Rectangle_Clipped" data-name="Mask_by_Rectangle Clipped">
      <rect id="vectorMask-2" data-name="vectorMask" width="332" height="210" rx="18" transform="translate(0 -0.315)" fill="none"/>
      <g id="Mask_by_Rectangle_Clipped-2" data-name="Mask_by_Rectangle Clipped" clip-path="url(#clip-path)">
        <g id="Mask_by_Rectangle" transform="translate(-76.868 -176.775)">
          <g id="Mask_by_Rectangle-2" transform="translate(0 0)">
            <path id="Rectangle_2_Copy_11" d="M7.716,74.313l93.235-70.4a19.309,19.309,0,0,1,27.1,3.809L193.018,94.1a19.4,19.4,0,0,1-3.818,27.155l-93.235,70.4a19.309,19.309,0,0,1-27.1-3.809L3.9,101.465A19.4,19.4,0,0,1,7.716,74.313Z" transform="translate(0 104.653)" fill="url(#linear-gradient-2)"/>
            <path id="Rectangle_2_Copy_12" d="M10.2,103.087,139.877,5.174a25.517,25.517,0,0,1,35.816,5.03l90.439,120.257a25.635,25.635,0,0,1-5.046,35.885L131.411,264.259a25.517,25.517,0,0,1-35.816-5.03L5.155,138.971A25.635,25.635,0,0,1,10.2,103.087Z" transform="translate(69.114 302.321)" fill="url(#linear-gradient-3)"/>
            <path id="Rectangle_2_Copy_13" d="M7.442,75.01,101.782,3.777a18.62,18.62,0,0,1,26.14,3.672l65.791,87.483a18.707,18.707,0,0,1-3.682,26.186L95.691,192.35a18.62,18.62,0,0,1-26.136-3.671L3.764,101.2A18.707,18.707,0,0,1,7.442,75.01Z" transform="translate(333.104 258.889)" fill="url(#linear-gradient-4)"/>
            <path id="Rectangle_2_Copy_14" d="M10.018,101.359,137.527,5.082a25.056,25.056,0,0,1,35.171,4.94l88.931,118.252a25.173,25.173,0,0,1-4.955,35.238l-127.51,96.277a25.057,25.057,0,0,1-35.171-4.94L5.063,136.6A25.173,25.173,0,0,1,10.018,101.359Z" transform="translate(199.885 0)" fill="url(#linear-gradient-5)"/>
          </g>
        </g>
      </g>
    </g>
  </g>
</svg>
