<svg xmlns="http://www.w3.org/2000/svg" width="38.115" height="29.928" viewBox="0 0 38.115 29.928">
  <g id="sim-card" transform="translate(0)">
    <path id="Path" d="M38.115,5.282V24.647l-5.2,5.282H5.2A5.255,5.255,0,0,1,0,24.647V5.282A5.255,5.255,0,0,1,5.2,0H32.916a5.255,5.255,0,0,1,5.2,5.282Z" transform="translate(0)" fill="#ead158"/>
    <g id="Group" transform="translate(2.253 2.307)">
      <g id="Group-2" transform="translate(0 0)">
        <path id="Path-2" d="M10.252.863A.858.858,0,0,0,9.4,0H.864a.863.863,0,1,0,0,1.726H9.4a.858.858,0,0,0,.854-.863Z" transform="translate(22.19 6.904)" fill="#3a3847"/>
        <path id="Path-3" d="M10.252.863A.858.858,0,0,0,9.4,0H.864a.863.863,0,1,0,0,1.726H9.4a.858.858,0,0,0,.854-.863Z" transform="translate(22.19 15.535)" fill="#3a3847"/>
        <path id="Path-4" d="M8.545.863A.858.858,0,0,0,7.691,0H.864a.863.863,0,1,0,0,1.726H7.691A.858.858,0,0,0,8.545.863Z" transform="translate(0 6.904)" fill="#3a3847"/>
        <path id="Path-5" d="M8.545.863A.858.858,0,0,0,7.691,0H.864a.863.863,0,1,0,0,1.726H7.691A.858.858,0,0,0,8.545.863Z" transform="translate(0 15.535)" fill="#3a3847"/>
        <path id="Path-6" d="M5.119,12.946a.858.858,0,0,0-.854-.863H2.561a.859.859,0,0,1-.854-.863V2.589a.859.859,0,0,1,.854-.863A.863.863,0,1,0,2.561,0,2.578,2.578,0,0,0,0,2.589v8.63a2.578,2.578,0,0,0,2.561,2.589H4.266a.858.858,0,0,0,.854-.863Z" transform="translate(8.546 5.178)" fill="#3a3847"/>
        <path id="Path-7" d="M5.127,9.525V.894a.854.854,0,1,0-1.705,0v8.63a.859.859,0,0,1-.854.863H.864a.863.863,0,1,0,0,1.726H2.569A2.578,2.578,0,0,0,5.127,9.525Z" transform="translate(18.78 6.873)" fill="#3a3847"/>
        <path id="Path-8" d="M1.706,4.347V.894A.854.854,0,1,0,0,.894V4.347a.854.854,0,1,0,1.705,0Z" transform="translate(18.787 17.23)" fill="#3a3847"/>
        <path id="Path-9" d="M1.706,4.347V.894A.854.854,0,1,0,0,.894V4.347a.854.854,0,1,0,1.705,0Z" transform="translate(11.959 17.23)" fill="#3a3847"/>
        <path id="Path-10" d="M3.159,3.2a.869.869,0,0,0,0-1.221L1.454.251a.846.846,0,0,0-1.2,0,.87.87,0,0,0,0,1.221L1.955,3.2a.846.846,0,0,0,1.2,0Z" transform="translate(18.791 20.714)" fill="#3a3847"/>
        <path id="Path-11" d="M1.454,3.2,3.159,1.472a.87.87,0,0,0,0-1.221.846.846,0,0,0-1.2,0L.251,1.978a.869.869,0,0,0,0,1.221.846.846,0,0,0,1.2,0Z" transform="translate(10.254 20.714)" fill="#3a3847"/>
        <path id="Path-12" d="M1.706,4.347V.894A.854.854,0,1,0,0,.894V4.347a.854.854,0,1,0,1.705,0Z" transform="translate(18.787 1.695)" fill="#3a3847"/>
        <path id="Path-13" d="M1.706,4.347V.894A.854.854,0,1,0,0,.894V4.347a.854.854,0,1,0,1.705,0Z" transform="translate(11.959 1.695)" fill="#3a3847"/>
        <path id="Path-14" d="M1.454,3.2,3.159,1.472a.87.87,0,0,0,0-1.221.846.846,0,0,0-1.2,0L.25,1.978A.87.87,0,0,0,.25,3.2a.846.846,0,0,0,1.2,0Z" transform="translate(18.789)" fill="#3a3847"/>
        <path id="Path-15" d="M3.159,3.2a.869.869,0,0,0,0-1.221L1.454.251a.846.846,0,0,0-1.2,0,.87.87,0,0,0,0,1.221L1.955,3.2a.846.846,0,0,0,1.2,0Z" transform="translate(10.256)" fill="#3a3847"/>
        <path id="Path-16" d="M3.422.863A.858.858,0,0,0,2.569,0H.864a.863.863,0,1,0,0,1.726H2.569A.858.858,0,0,0,3.422.863Z" transform="translate(10.243 5.178)" fill="#3a3847"/>
      </g>
      <path id="Color_Overlay" d="M20.759,23.924l-.016-.012-1.7-1.716a.807.807,0,0,1-.081-.092l-.012-.016-.008-.011-.006-.01v-.006l-.008-.012-.009-.015a.876.876,0,0,1-.124-.475V18.134a.859.859,0,0,1,.854-.863h1.7a.86.86,0,0,0,.854-.863V7.756a.858.858,0,0,1,.852-.841H31.6a.863.863,0,1,1,0,1.726H23.916v6.906H31.6a.863.863,0,1,1,0,1.726H23.774A2.567,2.567,0,0,1,21.359,19h-.853v2.231L21.963,22.7a.868.868,0,0,1,0,1.22.846.846,0,0,1-1.2,0ZM10.488,23.9l.014.014a.867.867,0,0,1,0-1.22l1.456-1.473V18.987H11.1a2.579,2.579,0,0,1-2.558-2.471.863.863,0,0,1-.855.744H.864a.863.863,0,1,1,0-1.726H7.691a.863.863,0,0,1,.853.729V7.9a.864.864,0,0,1-.853.73H.864a.863.863,0,1,1,0-1.726H7.691a.864.864,0,0,1,.855.744A2.578,2.578,0,0,1,11.1,5.178h.854V2.946L10.5,1.472a.868.868,0,0,1,0-1.221.845.845,0,0,1,1.2,0L13.4,1.961a.872.872,0,0,1,.187.263l.006.015v.053l.006.017a.871.871,0,0,1,.045.3V6.034a.858.858,0,0,1-.852.863H11.081a.859.859,0,0,0-.853.864v8.63a.858.858,0,0,0,.853.862h1.706a.859.859,0,0,1,.852.863v3.426a.872.872,0,0,1-.124.473l-.01.016-.008.013v.007l-.006.009-.008.011v0l-.012.015a.815.815,0,0,1-.081.093l-1.7,1.715a.844.844,0,0,1-1.2,0ZM19.175,6.822a.854.854,0,0,1-.414-.773l.026-.008V2.616a.877.877,0,0,1,.044-.3l.006-.016V2.247l.006-.015a.874.874,0,0,1,.188-.263L20.72.26a.848.848,0,0,1,1.2,0,.869.869,0,0,1,0,1.221L20.467,2.954V6.049a.854.854,0,0,1-1.292.773Z" transform="translate(0 0)"/>
    </g>
  </g>
</svg>
