<svg xmlns="http://www.w3.org/2000/svg" width="17.5" height="17.5" viewBox="0 0 17.5 17.5">
  <g id="Category" transform="translate(0.75 0.75)">
    <path id="Stroke_1" data-name="Stroke 1" d="M1.959,0H4.572A1.967,1.967,0,0,1,6.531,1.976V4.611A1.968,1.968,0,0,1,4.572,6.587H1.959A1.968,1.968,0,0,1,0,4.611V1.976A1.968,1.968,0,0,1,1.959,0Z" transform="translate(9.469)" fill="none" stroke="#fff" stroke-linecap="round" stroke-linejoin="round" stroke-miterlimit="10" stroke-width="1.5"/>
    <path id="Stroke_3" data-name="Stroke 3" d="M1.959,0H4.572A1.968,1.968,0,0,1,6.531,1.976V4.611A1.968,1.968,0,0,1,4.572,6.587H1.959A1.968,1.968,0,0,1,0,4.611V1.976A1.968,1.968,0,0,1,1.959,0Z" fill="none" stroke="#fff" stroke-linecap="round" stroke-linejoin="round" stroke-miterlimit="10" stroke-width="1.5"/>
    <path id="Stroke_5" data-name="Stroke 5" d="M1.959,0H4.572A1.968,1.968,0,0,1,6.531,1.977V4.611A1.968,1.968,0,0,1,4.572,6.587H1.959A1.968,1.968,0,0,1,0,4.611V1.977A1.968,1.968,0,0,1,1.959,0Z" transform="translate(0 9.413)" fill="none" stroke="#fff" stroke-linecap="round" stroke-linejoin="round" stroke-miterlimit="10" stroke-width="1.5"/>
    <path id="Stroke_7" data-name="Stroke 7" d="M1.959,0H4.572A1.968,1.968,0,0,1,6.531,1.977V4.611A1.967,1.967,0,0,1,4.572,6.587H1.959A1.968,1.968,0,0,1,0,4.611V1.977A1.968,1.968,0,0,1,1.959,0Z" transform="translate(9.469 9.413)" fill="none" stroke="#fff" stroke-linecap="round" stroke-linejoin="round" stroke-miterlimit="10" stroke-width="1.5"/>
  </g>
</svg>
