<svg xmlns="http://www.w3.org/2000/svg" width="20.407" height="15.176" viewBox="0 0 20.407 15.176">
  <g id="svgexport-10_3_" data-name="svgexport-10 (3)" transform="translate(0 0)">
    <path id="XMLID_1906_" d="M19.335,76.784,10.8,71.838V71.47a1.167,1.167,0,0,1,.625-1.019,2.573,2.573,0,1,0-3.795-2.264.6.6,0,1,0,1.2,0,1.376,1.376,0,0,1,1.431-1.376,1.377,1.377,0,0,1,.6,2.588,2.361,2.361,0,0,0-1.252,2.07v.368L1.071,76.784a2.149,2.149,0,0,0,1.077,4.008h16.11a2.149,2.149,0,0,0,1.077-4.008ZM18.258,79.6H2.149a.953.953,0,0,1-.478-1.778L10.2,72.874l8.532,4.945a.953.953,0,0,1-.478,1.778Z" transform="translate(0 -65.616)" fill="#97191d"/>
  </g>
</svg>
