<svg xmlns="http://www.w3.org/2000/svg" width="50" height="51.574" viewBox="0 0 50 51.574">
  <g id="svgexport-10_4_" data-name="svgexport-10 (4)" transform="translate(-15.571 -8)">
    <path id="Path_16665" data-name="Path 16665" d="M59.616,23.513a31.554,31.554,0,0,0-5.608-.874c2.687-1.01,4.653-4.179,4.653-7.924C58.661,10.573,56.176,8,52.176,8s-6.485,2.573-6.485,6.715c0,3.737,1.959,6.9,4.636,7.918a29.6,29.6,0,0,0-5.6.882c-3.245.834-5.274,2.483-5.806,4.687H25.6l-1.285-5.324a3.657,3.657,0,0,0-3.569-2.814H17.726a2.155,2.155,0,1,0,0,4.311h2.528L25.015,44.1a5.846,5.846,0,0,0-1.5,1.082,5.778,5.778,0,0,0,3.038,9.763,5.162,5.162,0,0,0,10.259.1h5.777a5.168,5.168,0,1,0,1.512-4.31H35.3a5.151,5.151,0,0,0-7.223,0H27.6a1.467,1.467,0,0,1,0-2.933H48.008a5.79,5.79,0,0,0,5.568-4.114l.626-2.028H64.739a.832.832,0,0,0,.832-.832V29.407c0-2.807-2.17-4.955-5.955-5.893Zm-12.262-8.8c0-3.21,1.757-5.051,4.822-5.051S57,11.5,57,14.715c0,3.638-2.163,6.6-4.822,6.6S47.355,18.353,47.355,14.715ZM36.442,52.39h6.524a5.118,5.118,0,0,0-.308.983H36.75A5.12,5.12,0,0,0,36.442,52.39Zm11.274-1.478a3.5,3.5,0,1,1-3.5,3.5A3.5,3.5,0,0,1,47.717,50.912Zm-16.025,0a3.5,3.5,0,1,1-3.5,3.5A3.5,3.5,0,0,1,31.692,50.912Zm20.294-7.723a4.126,4.126,0,0,1-3.978,2.941H27.6a3.131,3.131,0,0,0-.629,6.2,5.122,5.122,0,0,0-.311.938,4.116,4.116,0,0,1-.4-7.893.832.832,0,0,0,.536-.981L21.754,23.5a1.04,1.04,0,0,0-.365-.571,1.025,1.025,0,0,0-.64-.216H17.726a.492.492,0,1,1,0-.983h3.023a1.993,1.993,0,0,1,1.951,1.54l1.439,5.96a.832.832,0,0,0,.809.637H55.433a.492.492,0,0,1,.457.673c-.008.02-.015.041-.022.062Zm11.922-3.2H59.862V32.03a.832.832,0,0,0-1.664,0v7.957H54.714l2.735-8.869A2.156,2.156,0,0,0,55.433,28.2H40.666c.717-1.836,3.034-2.7,4.478-3.076a28.431,28.431,0,0,1,14.072,0c1.752.435,4.692,1.568,4.692,4.279V39.987ZM53.644,30.849H25.587a.832.832,0,0,0-.809,1.027l3.05,12.634a.832.832,0,0,0,.809.637H48.008A3.13,3.13,0,0,0,51.053,42.9l3.386-10.978a.832.832,0,0,0-.795-1.077Zm-8.93,8.382H40.306V36.683h4.407Zm1.664-2.548h4.853l-.786,2.548H46.378V36.683Zm-18.727,0h4.921v2.548H28.266Zm6.585,0h4.407v2.548H34.235Zm0-1.664V32.512h4.407V35.02H34.235Zm4.407,5.875v2.588H34.235V40.895Zm1.664,0h4.407v2.588H40.306Zm0-5.875V32.512h4.407V35.02H40.306Zm-7.735-2.507V35.02H27.249l-.605-2.507Zm-3.9,8.382h3.9v2.588h-3.28Zm20.8,1.519a1.467,1.467,0,0,1-1.455,1.069h-1.63V40.895h3.554Zm2.281-7.394H46.377V32.512h6.14ZM31.692,57.007a2.6,2.6,0,1,0-2.6-2.6A2.6,2.6,0,0,0,31.692,57.007Zm0-3.527a.932.932,0,1,1-.932.932A.933.933,0,0,1,31.692,53.48Zm16.025,3.527a2.6,2.6,0,1,0-2.6-2.6A2.6,2.6,0,0,0,47.717,57.007Zm0-3.527a.932.932,0,1,1-.932.932A.933.933,0,0,1,47.717,53.48Z"/>
  </g>
</svg>