<svg xmlns="http://www.w3.org/2000/svg" width="17.5" height="19.278" viewBox="0 0 17.5 19.278">
  <g id="Iconly_Light_Calendar" data-name="Iconly/Light/Calendar" transform="translate(0.75 0.75)">
    <g id="Calendar" transform="translate(0)">
      <path id="Line_200" d="M0,.473H15.844" transform="translate(0.082 6.109)" fill="none" stroke="#fff" stroke-linecap="round" stroke-linejoin="round" stroke-miterlimit="10" stroke-width="1.5"/>
      <path id="Line_201" d="M.459.473H.467" transform="translate(11.49 9.58)" fill="none" stroke="#fff" stroke-linecap="round" stroke-linejoin="round" stroke-miterlimit="10" stroke-width="1.5"/>
      <path id="Line_202" d="M.459.473H.467" transform="translate(7.546 9.58)" fill="none" stroke="#fff" stroke-linecap="round" stroke-linejoin="round" stroke-miterlimit="10" stroke-width="1.5"/>
      <path id="Line_203" d="M.459.473H.467" transform="translate(3.593 9.58)" fill="none" stroke="#fff" stroke-linecap="round" stroke-linejoin="round" stroke-miterlimit="10" stroke-width="1.5"/>
      <path id="Line_204" d="M.459.473H.467" transform="translate(11.49 13.035)" fill="none" stroke="#fff" stroke-linecap="round" stroke-linejoin="round" stroke-miterlimit="10" stroke-width="1.5"/>
      <path id="Line_205" d="M.459.473H.467" transform="translate(7.546 13.035)" fill="none" stroke="#fff" stroke-linecap="round" stroke-linejoin="round" stroke-miterlimit="10" stroke-width="1.5"/>
      <path id="Line_206" d="M.459.473H.467" transform="translate(3.593 13.035)" fill="none" stroke="#fff" stroke-linecap="round" stroke-linejoin="round" stroke-miterlimit="10" stroke-width="1.5"/>
      <path id="Line_207" d="M.463,0V2.925" transform="translate(11.131)" fill="none" stroke="#fff" stroke-linecap="round" stroke-linejoin="round" stroke-miterlimit="10" stroke-width="1.5"/>
      <path id="Line_208" d="M.463,0V2.925" transform="translate(3.951)" fill="none" stroke="#fff" stroke-linecap="round" stroke-linejoin="round" stroke-miterlimit="10" stroke-width="1.5"/>
      <path id="Path" d="M11.767,0H4.241C1.63,0,0,1.454,0,4.127v8.044c0,2.715,1.63,4.2,4.241,4.2h7.518c2.619,0,4.241-1.463,4.241-4.136V4.127C16.008,1.454,14.386,0,11.767,0Z" transform="translate(0 1.404)" fill="none" stroke="#fff" stroke-linecap="round" stroke-linejoin="round" stroke-miterlimit="10" stroke-width="1.5"/>
    </g>
  </g>
</svg>
