<svg xmlns="http://www.w3.org/2000/svg" width="20" height="19.03" viewBox="0 0 20 19.03">
  <g id="svgexport-10_18_" data-name="svgexport-10 (18)" transform="translate(-0.75 -0.75)">
    <path id="Path_17227" data-name="Path 17227" d="M9.595.75a4.688,4.688,0,1,0,4.688,4.688A4.688,4.688,0,0,0,9.595.75ZM18.161,16.4l-2.992,2.992q-.054.054-.11.105H16.6a1.563,1.563,0,0,0,1.563-1.563ZM9.205,19.5a1.56,1.56,0,0,1-.035-.6l.314-2.323a3.348,3.348,0,0,1,.951-1.919l2.843-2.843A16.878,16.878,0,0,0,1.536,13.352,1.48,1.48,0,0,0,.75,14.659v3.278A1.563,1.563,0,0,0,2.313,19.5H9.205Zm1.86-4.209a2.455,2.455,0,0,0-.7,1.407l-.314,2.323a.67.67,0,0,0,.753.753l2.323-.314a2.456,2.456,0,0,0,1.407-.7l5.493-5.493A2.455,2.455,0,0,0,16.558,9.8Zm.63,1.587a1.116,1.116,0,0,1,.317-.64l5.493-5.493a1.116,1.116,0,0,1,1.578,1.578l-5.493,5.493a1.116,1.116,0,0,1-.64.317l-1.452.2Z" fill="#97191d" fill-rule="evenodd"/>
  </g>
</svg>
