<svg xmlns="http://www.w3.org/2000/svg" width="24.628" height="18.764" viewBox="0 0 24.628 18.764">
  <g id="_7089163_gmail_google_icon" data-name="7089163_gmail_google_icon" transform="translate(-3 -8)">
    <path id="Path_16596" data-name="Path 16596" d="M40.864,16.2l-2.932,1.613L35,20.6v9.558h4.1A1.759,1.759,0,0,0,40.864,28.4Z" transform="translate(-13.236 -3.392)" fill="#4caf50"/>
    <path id="Path_16597" data-name="Path 16597" d="M3,16.2l2.119,1,3.745,3.4v9.558h-4.1A1.759,1.759,0,0,1,3,28.4Z" transform="translate(0 -3.392)" fill="#1e88e5"/>
    <path id="Path_16598" data-name="Path 16598" d="M25.487,11.2l-6.45,4.838L12.586,11.2,12,14.6l.586,3.929,6.45,4.838,6.45-4.838.586-3.929Z" transform="translate(-3.723 -1.324)" fill="#e53935"/>
    <path id="Path_16599" data-name="Path 16599" d="M3,10.52v2.288l5.864,4.4V9.876L7.032,8.5A2.518,2.518,0,0,0,5.52,8h0A2.52,2.52,0,0,0,3,10.52Z" fill="#c62828"/>
    <path id="Path_16600" data-name="Path 16600" d="M40.864,10.52v2.288L35,17.206V9.876L36.832,8.5A2.518,2.518,0,0,1,38.343,8h0A2.52,2.52,0,0,1,40.864,10.52Z" transform="translate(-13.236)" fill="#fbc02d"/>
  </g>
</svg>
