<svg xmlns="http://www.w3.org/2000/svg" width="15.501" height="13.961" viewBox="0 0 15.501 13.961">
  <g id="Iconly_Light_Message" data-name="Iconly/Light/Message" transform="translate(0.75 0.75)">
    <g id="Message">
      <path id="Path_445" d="M8.236,0,5.131,2.5a1.618,1.618,0,0,1-2,0L0,0" transform="translate(2.879 4.049)" fill="none" stroke="#97191d" stroke-linecap="round" stroke-linejoin="round" stroke-miterlimit="10" stroke-width="1.5"/>
      <path id="Rectangle_511" d="M3.558,0h6.864a3.609,3.609,0,0,1,2.606,1.158,3.652,3.652,0,0,1,.965,2.7V8.606a3.652,3.652,0,0,1-.965,2.7,3.609,3.609,0,0,1-2.606,1.158H3.558A3.617,3.617,0,0,1,0,8.606V3.854A3.617,3.617,0,0,1,3.558,0Z" fill="none" stroke="#97191d" stroke-linecap="round" stroke-linejoin="round" stroke-miterlimit="10" stroke-width="1.5"/>
    </g>
  </g>
</svg>
