<svg xmlns="http://www.w3.org/2000/svg" width="19.993" height="20" viewBox="0 0 19.993 20">
  <g id="svgexport-7_1_" data-name="svgexport-7 (1)" transform="translate(-2.5 -2.48)">
    <g id="Layer_20" data-name="Layer 20" transform="translate(2.5 2.48)">
      <path id="Path_16629" data-name="Path 16629" d="M20.531,8.586h-.678L14.3,4.52A1.613,1.613,0,0,0,14.32,4.3a1.816,1.816,0,0,0-3.633,0,1.613,1.613,0,0,0,.024.224L5.153,8.586H4.476A1.965,1.965,0,0,0,2.5,10.548v9.97A1.965,1.965,0,0,0,4.462,22.48H20.531a1.965,1.965,0,0,0,1.962-1.962V10.548a1.965,1.965,0,0,0-1.962-1.962ZM12.5,3.5a.8.8,0,1,1-.8.8A.8.8,0,0,1,12.5,3.5ZM11.141,5.479a1.789,1.789,0,0,0,2.738,0l4.243,3.107H6.871ZM21.477,20.518a.945.945,0,0,1-.945.945H4.462a.945.945,0,0,1-.945-.945V10.548A.945.945,0,0,1,4.462,9.6H20.531a.945.945,0,0,1,.945.945Z" transform="translate(-2.5 -2.48)" fill="#97191d"/>
    </g>
  </g>
</svg>
