<svg xmlns="http://www.w3.org/2000/svg" width="20.453" height="19.959" viewBox="0 0 20.453 19.959">
  <g id="Heart" transform="translate(0.768 0.787)">
    <path id="Path_33961" d="M9.22,18.272a34.834,34.834,0,0,1-6-4.8A12.325,12.325,0,0,1,.371,8.8C-.7,5.373.552,1.454,4.053.294a5.821,5.821,0,0,1,5.4.935h0a5.83,5.83,0,0,1,5.4-.935c3.5,1.16,4.762,5.079,3.691,8.5a12.325,12.325,0,0,1-2.854,4.677,34.834,34.834,0,0,1-6,4.8l-.234.15Z" transform="translate(0 0)" fill="none" stroke="#97191d" stroke-linecap="round" stroke-linejoin="round" stroke-miterlimit="10" stroke-width="1.5"/>
    <path id="Path_33964" d="M0,0A2.782,2.782,0,0,1,1.917,2.422" transform="translate(13.239 4.053)" fill="none" stroke="#97191d" stroke-linecap="round" stroke-linejoin="round" stroke-miterlimit="10" stroke-width="1.5"/>
  </g>
</svg>
