<svg xmlns="http://www.w3.org/2000/svg" width="20.007" height="23.086" viewBox="0 0 20.007 23.086">
  <g id="svgexport-10_1_" data-name="svgexport-10 (1)" transform="translate(-34.136)">
    <g id="Group_6073" data-name="Group 6073" transform="translate(34.136 0)">
      <g id="Group_6072" data-name="Group 6072">
        <path id="Path_16602" data-name="Path 16602" d="M46.981,20.138a3.353,3.353,0,0,1,.545-1.439.351.351,0,0,0,.018-.039c6.224-3.652,6.6-11.632,6.6-11.721a.384.384,0,0,0-.284-.385,7.326,7.326,0,0,1-2.052-.924,1.153,1.153,0,0,0-1.571-1.309,9.6,9.6,0,0,1-1.19-1.556l-.02-.03a8.293,8.293,0,0,1-.668-1.3C48.211.45,46.106,0,44.14,0s-4.072.45-4.218,1.431a8.293,8.293,0,0,1-.668,1.3l-.02.03a9.6,9.6,0,0,1-1.19,1.556,1.151,1.151,0,0,0-1.571,1.309,7.327,7.327,0,0,1-2.052.924.384.384,0,0,0-.284.385c0,.089.375,8.068,6.6,11.721a.357.357,0,0,0,.018.039,3.394,3.394,0,0,1,.542,1.439c-2.452.229-3.7.7-3.7,1.408,0,1.465,5.449,1.539,6.541,1.539s6.541-.074,6.541-1.539C50.681,20.84,49.435,20.367,46.981,20.138ZM50.681,5a.385.385,0,1,1-.385.385A.385.385,0,0,1,50.681,5Zm-.77,1.731a.577.577,0,1,1-.577-.577A.577.577,0,0,1,49.911,6.733ZM44.14.77c2.23,0,3.384.552,3.462.77-.078.218-1.231.769-3.462.769-2.251,0-3.4-.562-3.464-.764C40.735,1.331,41.889.77,44.14.77Zm-4.264,2.42.016-.023h0c.207-.333.367-.63.486-.873a2.9,2.9,0,0,0,.688.344.371.371,0,0,0,.084.029,9.845,9.845,0,0,0,2.989.411,9.845,9.845,0,0,0,2.99-.411.373.373,0,0,0,.083-.029,2.905,2.905,0,0,0,.689-.345c.12.242.279.54.486.873h0l.016.023A10.357,10.357,0,0,0,49.67,4.841a1.139,1.139,0,0,0-.143.545c0,.007,0,.013,0,.02a1.326,1.326,0,0,0-.194-.02A1.344,1.344,0,0,0,48,6.6a1.521,1.521,0,0,0-.4-.059A1.539,1.539,0,0,0,46.091,7.81a1.692,1.692,0,0,0-1.951.542,1.692,1.692,0,0,0-1.951-.542,1.539,1.539,0,0,0-1.512-1.269,1.519,1.519,0,0,0-.4.059,1.344,1.344,0,0,0-1.333-1.213,1.325,1.325,0,0,0-.194.02c0-.007,0-.013,0-.02a1.14,1.14,0,0,0-.143-.545A10.359,10.359,0,0,0,39.876,3.189Zm8.5,4.891a.77.77,0,1,1-.77-.77A.77.77,0,0,1,48.372,8.08ZM46.448,9.427a.962.962,0,1,1-.962-.962A.962.962,0,0,1,46.448,9.427Zm-2.693,0a.962.962,0,1,1-.962-.962A.962.962,0,0,1,43.755,9.427ZM41.446,8.08a.77.77,0,1,1-.77-.77A.77.77,0,0,1,41.446,8.08Zm-2.5-1.924a.577.577,0,1,1-.577.577A.577.577,0,0,1,38.945,6.156ZM37.6,5a.385.385,0,1,1-.385.385A.385.385,0,0,1,37.6,5ZM34.927,7.207a8.1,8.1,0,0,0,1.954-.924,1.143,1.143,0,0,0,.718.258l.02,0a1.332,1.332,0,0,0-.02.194A1.348,1.348,0,0,0,38.945,8.08a1.325,1.325,0,0,0,.194-.02c0,.007,0,.013,0,.02a1.541,1.541,0,0,0,1.539,1.539,1.519,1.519,0,0,0,.4-.059,1.718,1.718,0,0,0,3.065.941A1.718,1.718,0,0,0,47.2,9.56a1.521,1.521,0,0,0,.4.059A1.541,1.541,0,0,0,49.141,8.08c0-.007,0-.013,0-.02a1.326,1.326,0,0,0,.194.02A1.348,1.348,0,0,0,50.68,6.733a1.331,1.331,0,0,0-.02-.194l.02,0a1.143,1.143,0,0,0,.718-.258,8.1,8.1,0,0,0,1.954.924c-.145,1.6-1.2,9.256-8.181,11.706a3.144,3.144,0,0,1-2.062,0C36.139,16.467,35.074,8.812,34.927,7.207ZM44.14,22.316c-3.349,0-5.276-.472-5.71-.768a7.55,7.55,0,0,1,2.878-.638,3.193,3.193,0,0,1-.1.532.385.385,0,1,0,.741.208,4.02,4.02,0,0,0-.077-2.41c.317.143.641.279.984.4a3.92,3.92,0,0,0,2.57,0c.343-.12.667-.256.983-.4a4.02,4.02,0,0,0-.077,2.41.385.385,0,1,0,.741-.208,3.228,3.228,0,0,1-.1-.532,7.55,7.55,0,0,1,2.879.638C49.416,21.844,47.489,22.316,44.14,22.316Z" transform="translate(-34.136 0)" fill="#fff"/>
      </g>
    </g>
  </g>
</svg>
