<svg id="Iconly_Bold_Location" data-name="Iconly/Bold/Location" xmlns="http://www.w3.org/2000/svg" width="20" height="23.529" viewBox="0 0 20 23.529">
  <g id="Location">
    <path id="Location-2" data-name="Location" d="M10.005,23.529a1.6,1.6,0,0,1-.863-.291A25.309,25.309,0,0,1,2.624,17.19,12.217,12.217,0,0,1,0,9.786,9.61,9.61,0,0,1,2.945,2.863,10.036,10.036,0,0,1,9.992,0,9.91,9.91,0,0,1,20,9.786a12.223,12.223,0,0,1-2.624,7.4,25.788,25.788,0,0,1-6.519,6.048A1.552,1.552,0,0,1,10.005,23.529ZM9.992,6.8A3.3,3.3,0,0,0,6.7,10.091a3.19,3.19,0,0,0,.966,2.3,3.321,3.321,0,0,0,5.635-2.3A3.323,3.323,0,0,0,9.992,6.8Z" fill="#97191d"/>
  </g>
</svg>
