<svg xmlns="http://www.w3.org/2000/svg" width="22" height="22" viewBox="0 0 22 22">
  <g id="svgexport-6_6_" data-name="svgexport-6 (6)" transform="translate(-0.529 -60.529)">
    <g id="layer1" transform="translate(0.529 60.529)">
      <path id="path52" d="M11.517,291.179a1.1,1.1,0,0,0-1.089,1.118v8.842a1.1,1.1,0,1,0,2.2,0V292.3a1.1,1.1,0,0,0-1.113-1.118Zm6.418,2.216q-.054,0-.107,0a1.106,1.106,0,0,0-.61,1.951,8.8,8.8,0,1,1-11.409.032,1.109,1.109,0,0,0,.122-1.558A1.1,1.1,0,0,0,4.38,293.7a11.082,11.082,0,0,0,7.155,19.479,11.082,11.082,0,0,0,7.106-19.512,1.1,1.1,0,0,0-.7-.272Z" transform="translate(-0.529 -291.179)" fill="#97191d"/>
    </g>
  </g>
</svg>
