<svg xmlns="http://www.w3.org/2000/svg" width="20.002" height="13.751" viewBox="0 0 20.002 13.751">
  <g id="svgexport-6_1_" data-name="svgexport-6 (1)" transform="translate(0 -80)">
    <g id="Group_6283" data-name="Group 6283" transform="translate(0 80)">
      <path id="Path_17167" data-name="Path 17167" d="M20,83.349V82.259A2.224,2.224,0,0,0,17.814,80H2.188A2.224,2.224,0,0,0,0,82.259v1.089a.2.2,0,0,0,.2.2H19.807A.2.2,0,0,0,20,83.349Z" transform="translate(0 -80)" fill="#97191d"/>
      <path id="Path_17168" data-name="Path 17168" d="M0,200.2v6.9a2.224,2.224,0,0,0,2.188,2.259H17.814A2.224,2.224,0,0,0,20,207.1v-6.9a.2.2,0,0,0-.2-.2H.2A.2.2,0,0,0,0,200.2Zm5,5.285a.636.636,0,0,1-.625.646H3.75a.636.636,0,0,1-.625-.646v-.646a.636.636,0,0,1,.625-.646h.625a.636.636,0,0,1,.625.646Z" transform="translate(0 -195.609)" fill="#97191d"/>
    </g>
  </g>
</svg>
