<svg xmlns="http://www.w3.org/2000/svg" width="30.83" height="30.83" viewBox="0 0 30.83 30.83">
  <g id="svgexport-10_8_" data-name="svgexport-10 (8)" transform="translate(0 0)">
    <path id="Path_16966" data-name="Path 16966" d="M88,321.663l-1.309-.784a2.575,2.575,0,0,0-1.32-.365H83.4a4.649,4.649,0,0,0-1.195.154l-5.934,1.593a2.069,2.069,0,0,0-1.4,1.3l-5.22-2.824a2.045,2.045,0,0,0-1.4-.231,1.93,1.93,0,0,0-.52.171,2.02,2.02,0,0,0-.883.822,2.059,2.059,0,0,0-.272,1.022A2.036,2.036,0,0,0,67.6,324.3l9.355,5.6a2.569,2.569,0,0,0,1.353.385h7.24a2.56,2.56,0,0,0,.944-.18L88,329.5v.775h5.138V320H88Zm-1.885,7.478a1.546,1.546,0,0,1-.565.108H78.308a1.546,1.546,0,0,1-.819-.235l-9.368-5.6a1.022,1.022,0,0,1-.511-.892,1.044,1.044,0,0,1,.138-.514,1.01,1.01,0,0,1,.441-.407.968.968,0,0,1,.257-.083,1.081,1.081,0,0,1,.2-.018,1.007,1.007,0,0,1,.5.133l5.66,3.058c.007.031.007.062.015.094a2.06,2.06,0,0,0,1.987,1.521,5.052,5.052,0,0,0,.847-.151l5.339-1.429-.265-.993-5.321,1.422c-.234.054-.537.116-.6.121a1.028,1.028,0,0,1-.993-.757.937.937,0,0,1-.03-.19s0-.124,0-.168a1.039,1.039,0,0,1,.756-.906l5.932-1.587a3.592,3.592,0,0,1,.928-.122h1.97a1.541,1.541,0,0,1,.792.219l1.837,1.1V328.4Zm2.913-8.113h3.083v8.221H89.028Zm0,0" transform="translate(-62.308 -299.447)" fill="#97191d"/>
    <path id="Path_16967" data-name="Path 16967" d="M21.193,4.11,18.436,1.354A4.592,4.592,0,0,0,15.166,0H8.706A2.587,2.587,0,0,0,7.557.271L6.406.847a1.523,1.523,0,0,1-.745.161L5.138.99V0H0V11.3H5.138V9.763h.874l.311.205a5.665,5.665,0,0,0,2.926.942v6.56H30.83V4.11ZM4.111,10.276H1.028V1.027H4.111ZM6.892,9.113,6.32,8.735H5.138V2.018l.484.017a2.58,2.58,0,0,0,1.242-.269L8.016,1.19a1.544,1.544,0,0,1,.69-.163h6.46A3.573,3.573,0,0,1,17.71,2.081l2.03,2.03H15.5L14.252,2.863l-.726.726,3.63,3.63A1.03,1.03,0,0,1,15.7,8.68L12.67,5.648l-.36.308a2.723,2.723,0,0,1-3.463.051l-.3-.241-.648.8.3.244a3.746,3.746,0,0,0,1.047.59V9.882a4.634,4.634,0,0,1-2.357-.769ZM14.2,8.632l.775.776a2.07,2.07,0,0,0,2.9,0,2.6,2.6,0,1,0,.292-.373,2.021,2.021,0,0,0,.168-1.844h6.881A3.092,3.092,0,0,0,27.747,9.72v2.141a3.092,3.092,0,0,0-2.527,2.527H14.859a3.092,3.092,0,0,0-2.527-2.527V9.72A3.067,3.067,0,0,0,14.2,8.632Zm4.3,2.158a1.542,1.542,0,1,1,1.542,1.542A1.542,1.542,0,0,1,18.5,10.79Zm11.3,5.652H10.277V7.614a3.736,3.736,0,0,0,2.312-.591l.877.877a2.05,2.05,0,0,1-1.647.835H11.3v4.111h.514A2.055,2.055,0,0,1,13.873,14.9v.514H26.206V14.9a2.055,2.055,0,0,1,2.055-2.055h.514V8.735h-.514A2.055,2.055,0,0,1,26.206,6.68V6.166H17.555L16.527,5.138H29.8Zm0,0" fill="#97191d"/>
  </g>
</svg>
