<svg xmlns="http://www.w3.org/2000/svg" width="56.384" height="17.064" viewBox="0 0 56.384 17.064">
  <g id="Group_6486" data-name="Group 6486" transform="translate(-158.775 -174.953)">
    <g id="svgexport-10_7_" data-name="svgexport-10 (7)" transform="translate(176.789 163.249)">
      <g id="Group_6468" data-name="Group 6468" transform="translate(0 19.026)">
        <g id="Group_6467" data-name="Group 6467">
          <path id="Path_16958" data-name="Path 16958" d="M6.877,20.276a1.555,1.555,0,0,0-.571-.616,2.674,2.674,0,0,0-.908-.333,7.422,7.422,0,0,0-1.234-.1l-2.182,0a.547.547,0,0,0-.5.4l-1.468,6.4a.309.309,0,0,0,.316.4H1.372a.535.535,0,0,0,.5-.4l.359-1.553a.535.535,0,0,1,.5-.4h.3a4.949,4.949,0,0,0,2.978-.786,2.446,2.446,0,0,0,1.067-2.073A1.944,1.944,0,0,0,6.877,20.276ZM4.623,22.365a2.2,2.2,0,0,1-1.321.347H3.046a.311.311,0,0,1-.317-.4l.314-1.358a.529.529,0,0,1,.5-.4l.343,0a1.672,1.672,0,0,1,.909.2.691.691,0,0,1,.3.623A1.131,1.131,0,0,1,4.623,22.365Z" transform="translate(0 -19.229)" fill="#97191d"/>
        </g>
      </g>
      <g id="Group_6470" data-name="Group 6470" transform="translate(36.038 18.381)">
        <g id="Group_6469" data-name="Group 6469">
          <path id="Path_16959" data-name="Path 16959" d="M47.977,19.527l-.065.02-.088.012-.107-.017-.055-.053-.025-.084,0-.126v-.465h.349v-.144h-.349v-.29h-.173v.29h-.117v.144h.117v.541l.081.268.237.085.1-.008.106-.021v-.153Z" transform="translate(-47.345 -18.381)" fill="#97191d"/>
        </g>
      </g>
      <g id="Group_6472" data-name="Group 6472" transform="translate(36.883 18.642)">
        <g id="Group_6471" data-name="Group 6471" transform="translate(0 0)">
          <path id="Path_16960" data-name="Path 16960" d="M49.863,18.827l-.25-.1-.184.037-.187.126-.109-.121-.177-.042-.17.037-.161.1v-.113h-.17v1.016h.169V19.01l.142-.088.142-.035.116.021.057.059.025.1.008.126v.581h.17v-.65l0-.054,0-.049.145-.092.143-.036.112.021.061.059.021.1.011.124v.581h.171v-.66Z" transform="translate(-48.456 -18.724)" fill="#97191d"/>
        </g>
      </g>
      <g id="Group_6474" data-name="Group 6474" transform="translate(6.498 20.654)">
        <g id="Group_6473" data-name="Group 6473">
          <path id="Path_16961" data-name="Path 16961" d="M13.956,21.7a3.966,3.966,0,0,0-1.868-.333,8.255,8.255,0,0,0-1.264.1c-.313.048-.343.057-.536.1a.613.613,0,0,0-.46.483l-.128.526c-.072.336.121.323.2.295a5.431,5.431,0,0,1,.625-.184,4.48,4.48,0,0,1,.979-.131,2.58,2.58,0,0,1,.951.134.48.48,0,0,1,.315.475l-.018.148L12.6,23.4c-.593.037-1.021.092-1.541.167a4.781,4.781,0,0,0-1.325.365,2.06,2.06,0,0,0-.9.709,1.933,1.933,0,0,0-.3,1.093,1.291,1.291,0,0,0,.425.993,1.6,1.6,0,0,0,1.1.376,3,3,0,0,0,.656-.061l.506-.174.429-.237.394-.26.005.008-.04.167,0,.007v0a.311.311,0,0,0,.279.391l0,0h.97l.014-.006a.541.541,0,0,0,.45-.391l.762-3.3.04-.269.018-.252A1.1,1.1,0,0,0,13.956,21.7Zm-1.685,3.708-.163.215-.411.212a1.464,1.464,0,0,1-.547.118,1.254,1.254,0,0,1-.6-.113l-.2-.392a.783.783,0,0,1,.153-.51l.443-.3a3.832,3.832,0,0,1,.689-.155c.239-.03.711-.084.773-.085l.072.127C12.468,24.6,12.334,25.156,12.271,25.409Z" transform="translate(-8.537 -21.367)" fill="#97191d"/>
        </g>
      </g>
      <g id="Group_6476" data-name="Group 6476" transform="translate(25.48 20.658)">
        <g id="Group_6475" data-name="Group 6475">
          <path id="Path_16962" data-name="Path 16962" d="M38.894,21.706a3.974,3.974,0,0,0-1.867-.334,7.957,7.957,0,0,0-1.264.1c-.314.046-.345.056-.538.1a.611.611,0,0,0-.458.484l-.128.525c-.072.336.117.32.206.295a6.192,6.192,0,0,1,.62-.185,4.674,4.674,0,0,1,.981-.131,2.567,2.567,0,0,1,.948.135.479.479,0,0,1,.315.474l-.016.147-.149.1c-.6.036-1.028.091-1.543.166a4.783,4.783,0,0,0-1.326.365,2.058,2.058,0,0,0-.9.711,1.909,1.909,0,0,0-.3,1.088,1.277,1.277,0,0,0,.428.994,1.6,1.6,0,0,0,1.1.378,2.912,2.912,0,0,0,.655-.062l.5-.172.432-.237.391-.263.007.008-.036.169,0,0,0,0a.306.306,0,0,0,.278.391l0,0h.97l.016-.005a.535.535,0,0,0,.445-.394l.764-3.294.04-.27.022-.253A1.1,1.1,0,0,0,38.894,21.706Zm-1.681,3.708-.17.217-.407.211a1.48,1.48,0,0,1-.544.118,1.217,1.217,0,0,1-.594-.114l-.2-.39a.817.817,0,0,1,.149-.512,1.071,1.071,0,0,1,.448-.3,3.883,3.883,0,0,1,.688-.155c.237-.03.708-.085.769-.086l.074.127C37.409,24.6,37.275,25.16,37.212,25.415Z" transform="translate(-33.475 -21.372)" fill="#97191d"/>
        </g>
      </g>
      <g id="Group_6478" data-name="Group 6478" transform="translate(18.979 19.049)">
        <g id="Group_6477" data-name="Group 6477" transform="translate(0 0)">
          <path id="Path_16963" data-name="Path 16963" d="M31.811,20.306a1.617,1.617,0,0,0-.575-.618,2.565,2.565,0,0,0-.908-.333,7.185,7.185,0,0,0-1.229-.1l-2.185,0a.543.543,0,0,0-.5.4l-1.47,6.4a.31.31,0,0,0,.315.4l1.047,0a.542.542,0,0,0,.5-.4l.354-1.554a.542.542,0,0,1,.5-.4h.3a4.975,4.975,0,0,0,2.985-.785,2.474,2.474,0,0,0,1.063-2.076A2.039,2.039,0,0,0,31.811,20.306ZM29.557,22.4a2.225,2.225,0,0,1-1.318.343h-.26a.313.313,0,0,1-.32-.4l.317-1.356a.531.531,0,0,1,.5-.4l.339,0a1.692,1.692,0,0,1,.909.2.7.7,0,0,1,.3.623A1.147,1.147,0,0,1,29.557,22.4Z" transform="translate(-24.934 -19.259)" fill="#97191d"/>
        </g>
      </g>
      <g id="Group_6480" data-name="Group 6480" transform="translate(31.661 19.106)">
        <g id="Group_6479" data-name="Group 6479" transform="translate(0 0)">
          <path id="Path_16964" data-name="Path 16964" d="M44.752,19.727a.306.306,0,0,0-.314-.393H43.5a.53.53,0,0,0-.449.317L43,19.732l-.047.207-1.308,5.948-.043.183,0,0a.3.3,0,0,0,.263.371l.016.022h.972a.531.531,0,0,0,.451-.323l.05-.076,1.4-6.341Z" transform="translate(-41.595 -19.334)" fill="#97191d"/>
        </g>
      </g>
      <g id="Group_6482" data-name="Group 6482" transform="translate(12.859 20.734)">
        <g id="Group_6481" data-name="Group 6481">
          <path id="Path_16965" data-name="Path 16965" d="M23.053,21.472c-.247,0-1.253,0-1.253,0a.906.906,0,0,0-.658.4s-1.5,2.568-1.642,2.826l-.174,0-.466-2.806a.576.576,0,0,0-.569-.41l-.936,0a.309.309,0,0,0-.313.4s.711,4.046.853,5c.066.525-.008.619-.008.619l-.926,1.612c-.137.219-.063.4.161.4l1.082,0a.875.875,0,0,0,.655-.4l4.164-7.042S23.425,21.464,23.053,21.472Z" transform="translate(-16.893 -21.472)" fill="#97191d"/>
        </g>
      </g>
    </g>
    <g id="svgexport-7_8_" data-name="svgexport-7 (8)" transform="translate(155 172.953)">
      <g id="Group_6485" data-name="Group 6485" transform="translate(3.775 2)">
        <path id="Path_16971" data-name="Path 16971" d="M4.694,17.009H6.929a.8.8,0,0,0,.458-.135.827.827,0,0,0,.39-.563l.773-3.968a1.158,1.158,0,0,1,1.14-.938h2.52a4.706,4.706,0,0,0,4.7-4.7V6.65A4.713,4.713,0,0,0,12.21,2H6.862a.853.853,0,0,0-.84.713L3.787,15.944a.919.919,0,0,0,.908,1.065Z" transform="translate(-3.775 -2)" fill="#97191d"/>
        <path id="Path_16972" data-name="Path 16972" d="M14.383,15.545h-2.52a.418.418,0,0,0-.405.33l-.773,3.968a1.61,1.61,0,0,1-1.268,1.275l-.067.4a.8.8,0,0,0,.788.93H12.1a.755.755,0,0,0,.743-.615l.675-3.473a1.027,1.027,0,0,1,1.005-.825h2.205a4.12,4.12,0,0,0,4.118-4.118,4.057,4.057,0,0,0-1.05-2.745A5.442,5.442,0,0,1,14.383,15.545Z" transform="translate(-5.948 -5.389)" fill="#97191d"/>
      </g>
    </g>
  </g>
</svg>
