<svg xmlns="http://www.w3.org/2000/svg" width="16.505" height="16.507" viewBox="0 0 16.505 16.507">
  <g id="Iconly_Light_Call" data-name="Iconly/Light/Call" transform="translate(0.754 0.751)">
    <g id="Call">
      <path id="Call-2" data-name="Call" d="M.387,1.873C.637,1.46,2.013-.044,2.995,0a1.292,1.292,0,0,1,.764.408A13.313,13.313,0,0,1,5.707,3.045C5.9,3.968,4.8,4.5,5.135,5.43A7.794,7.794,0,0,0,9.571,9.864c.929.336,1.461-.763,2.384-.571a13.337,13.337,0,0,1,2.637,1.948,1.294,1.294,0,0,1,.408.764c.036,1.034-1.561,2.429-1.872,2.607a2.734,2.734,0,0,1-2.861-.027C7.006,13.229,1.8,8.118.414,4.734A2.738,2.738,0,0,1,.387,1.873Z" transform="translate(0 0)" fill="#fff" stroke="#97191d" stroke-linecap="round" stroke-linejoin="round" stroke-miterlimit="10" stroke-width="1.5"/>
    </g>
  </g>
</svg>
