<svg id="_002-income" data-name="002-income" xmlns="http://www.w3.org/2000/svg" width="20.243" height="20.527" viewBox="0 0 20.243 20.527">
  <path id="Path_10146" data-name="Path 10146" d="M183.827,10.156a5.078,5.078,0,1,0-5.078-5.078A5.084,5.084,0,0,0,183.827,10.156Zm-.6-8.063V1.955a.6.6,0,1,1,1.2,0v.139a1.59,1.59,0,0,1,1.254,1.552.6.6,0,1,1-1.2,0,.386.386,0,0,0-.385-.385h-.539a.385.385,0,0,0-.229.694l.5.37,1.216.9a1.594,1.594,0,0,1,.643,1.265V6.5a1.589,1.589,0,0,1-1.257,1.564V8.2a.6.6,0,1,1-1.2,0V8.062a1.588,1.588,0,0,1-1.253-1.542.6.6,0,0,1,.6-.6h0a.6.6,0,0,1,.6.6.384.384,0,0,0,.387.382l.538,0a.385.385,0,0,0,.382-.388V6.5a.386.386,0,0,0-.156-.307l-.5-.37-1.216-.9a1.588,1.588,0,0,1,.615-2.829Z" transform="translate(-171.725)" fill="#97191d"/>
  <path id="Path_10147" data-name="Path 10147" d="M7.423,318.681a.56.56,0,0,0-.765-.205l-2.829,1.633a.561.561,0,0,0-.205.766l2.891,5.008a.561.561,0,0,0,.765.205l2.829-1.633a.56.56,0,0,0,.205-.766Z" transform="translate(-3.548 -305.636)" fill="#97191d"/>
  <path id="Path_10148" data-name="Path 10148" d="M151.03,273.093a.843.843,0,0,0-1.177-.191l-3.521,2.537a2.121,2.121,0,0,1-.253.186,2.181,2.181,0,0,1-1.166.334h-2.881a.6.6,0,0,1,0-1.2h3.081a.8.8,0,0,0,.8-.83.81.81,0,0,0-.816-.764h-2.345a3.9,3.9,0,0,0-.519-.459,3.847,3.847,0,0,0-2.291-.752,4.243,4.243,0,0,0-3.671,2.243l2.46,4.261h4.615a5.18,5.18,0,0,0,2.584-.684,10.36,10.36,0,0,0,.88-.571c1.324-.951,4.03-2.927,4.033-2.928A.843.843,0,0,0,151.03,273.093Z" transform="translate(-130.947 -261.047)" fill="#97191d"/>
</svg>
