<svg xmlns="http://www.w3.org/2000/svg" width="20.179" height="26.905" viewBox="0 0 20.179 26.905">
  <g id="svgexport-10_17_" data-name="svgexport-10 (17)" transform="translate(-64)">
    <g id="Group_6576" data-name="Group 6576" transform="translate(69.045)">
      <g id="Group_6575" data-name="Group 6575">
        <path id="Path_17225" data-name="Path 17225" d="M169.249,1.682h-1.826a2.523,2.523,0,0,0-4.757,0h-1.824a.841.841,0,0,0-.841.841V5.885a.841.841,0,0,0,.841.841h8.408a.841.841,0,0,0,.841-.841V2.522A.841.841,0,0,0,169.249,1.682Z" transform="translate(-160)" fill="#97191d"/>
      </g>
    </g>
    <g id="Group_6578" data-name="Group 6578" transform="translate(64 3.363)">
      <g id="Group_6577" data-name="Group 6577">
        <path id="Path_17226" data-name="Path 17226" d="M82.5,64H80.816v2.522a2.525,2.525,0,0,1-2.522,2.522H69.885a2.525,2.525,0,0,1-2.522-2.522V64H65.682A1.684,1.684,0,0,0,64,65.682V85.86a1.663,1.663,0,0,0,1.682,1.682H82.5a1.663,1.663,0,0,0,1.682-1.682V65.682A1.663,1.663,0,0,0,82.5,64ZM73.844,78.889l-3.363,3.363a.844.844,0,0,1-1.191,0L67.609,80.57A.841.841,0,0,1,68.8,79.381l1.088,1.086L72.653,77.7a.841.841,0,0,1,1.191,1.189Zm0-6.726-3.363,3.363a.844.844,0,0,1-1.191,0l-1.682-1.682A.841.841,0,0,1,68.8,72.655l1.088,1.086,2.768-2.768a.841.841,0,0,1,1.191,1.189Zm6.131,8.653H76.612a.841.841,0,1,1,0-1.682h3.363a.841.841,0,1,1,0,1.682Zm0-6.726H76.612a.841.841,0,0,1,0-1.682h3.363a.841.841,0,0,1,0,1.682Z" transform="translate(-64 -64)" fill="#97191d"/>
      </g>
    </g>
  </g>
</svg>
