<svg xmlns="http://www.w3.org/2000/svg" width="50" height="50.004" viewBox="0 0 50 50.004">
  <g id="svgexport-10_5_" data-name="svgexport-10 (5)" transform="translate(0 -0.022)">
    <path id="Path_16666" data-name="Path 16666" d="M45.143,38.135l-3.477-1.241v-.833c.441-.281.852-.568,1.222-.829.209-.147.408-.287.593-.417a5.853,5.853,0,0,0,2.486-3.878l.25-1.51a2.84,2.84,0,0,0,2.115-2.737V22.524a10.842,10.842,0,0,0-10-10.792V9.881a2.057,2.057,0,0,0-.983-1.765L31.667,4.561V2.522a2.5,2.5,0,0,0-2.5-2.5h-20a2.5,2.5,0,0,0-2.5,2.5V4.561L.989,8.112A2.061,2.061,0,0,0,0,9.881v2.226a2.071,2.071,0,0,0,.833,1.656v24.6a2.5,2.5,0,0,0,2.5,2.5H26.311A7.307,7.307,0,0,0,25,45.026v2.5a2.5,2.5,0,0,0,2.5,2.5h20a2.5,2.5,0,0,0,2.5-2.5v-2.5A7.333,7.333,0,0,0,45.143,38.135ZM42.591,48.36H40.652l-1-4,.167-.75a1.672,1.672,0,0,0,.333-.007,1.578,1.578,0,0,0,1.053-.622l2.462-3.289a17.047,17.047,0,0,1-1.076,8.667ZM31.333,39.693,33.8,42.986a1.576,1.576,0,0,0,1.052.619,1.7,1.7,0,0,0,.215.014c.04,0,.077-.016.117-.019l.167.758-1,4H32.409a17.047,17.047,0,0,1-1.076-8.666Zm2.583-1.237,2.47,2.471-1.317.987-2.284-3.054Zm7.167,0,1.131.4-2.285,3.055-1.317-.987Zm-4.213,5.089-.172-.768.8-.6.8.6-.172.768Zm-.019,1.667h1.3l.785,3.148H36.067ZM40,37.181l-2.5,2.5-2.5-2.5v-.222a5.79,5.79,0,0,0,5,0Zm5.5-9.322a.833.833,0,0,0-.822.7l-.353,2.116a4.182,4.182,0,0,1-1.773,2.772c-.2.132-.4.278-.623.433-1.255.878-2.818,1.984-4.428,1.984s-3.173-1.1-4.428-1.987c-.219-.155-.428-.3-.623-.433a4.184,4.184,0,0,1-1.772-2.768l-.353-2.112a.833.833,0,0,0-.822-.7,1.167,1.167,0,1,1,0-2.333.833.833,0,0,0,.833-.833A1.691,1.691,0,0,1,31.5,22.917,15.392,15.392,0,0,0,37.371,20.9a.229.229,0,0,1,.263,0A15.391,15.391,0,0,0,43.5,22.913a1.691,1.691,0,0,1,1.167,1.778.833.833,0,0,0,.833.833,1.167,1.167,0,1,1,0,2.333ZM26.667,22.524v4.167a2.84,2.84,0,0,0,2.113,2.742l.1.592H19.167V18.359H27.5a10.783,10.783,0,0,0-.833,4.166Zm20,0v1.587a2.759,2.759,0,0,0-.4-.148,3.186,3.186,0,0,0-2.529-2.7,13.685,13.685,0,0,1-5.219-1.774,1.9,1.9,0,0,0-2.038,0,13.687,13.687,0,0,1-5.218,1.774,3.186,3.186,0,0,0-2.53,2.7,2.759,2.759,0,0,0-.4.148V22.524a9.167,9.167,0,0,1,18.333,0Zm-44.583-10a.417.417,0,0,1-.417-.417V10.024h5v2.5ZM7.739,5.858H10.2l-3,2.5H3.742Zm26.852,2.5H31.136l-3-2.5h2.458Zm-9.06-2.5,3,2.5H23.8l-1.5-2.5Zm-5.167,0,1.5,2.5H16.472l1.5-2.5Zm-5.833,2.5H9.8l3-2.5h3.226ZM8.336,10.024h5.833v2.5H8.333Zm7.5,0H22.5v2.5H15.833Zm8.333,0H30v2.5H24.167Zm7.5,2.5v-2.5h5v1.709a10.756,10.756,0,0,0-3.327.792Zm-23.333-10a.833.833,0,0,1,.833-.833h20A.833.833,0,0,1,30,2.524V4.191H8.333ZM2.5,38.359V14.193H30.587a10.931,10.931,0,0,0-2.2,2.5H19.167A1.667,1.667,0,0,0,17.5,18.359V30.026a1.667,1.667,0,0,0,1.667,1.667H29.215a5.841,5.841,0,0,0,2.3,3.127c.187.126.385.266.594.417.371.262.782.548,1.222.829V36.9L29.857,38.14A7.275,7.275,0,0,0,27.908,39.2H15.833V18.364A1.667,1.667,0,0,0,14.167,16.7H5.833a1.667,1.667,0,0,0-1.667,1.667V39.2H3.333a.833.833,0,0,1-.833-.837Zm11.667.833H5.833V18.359h8.333Zm12.5,8.333v-2.5a5.667,5.667,0,0,1,2.954-4.965,18.927,18.927,0,0,0,.979,8.3H27.5a.833.833,0,0,1-.833-.833Zm21.667,0a.833.833,0,0,1-.833.833H44.4a18.93,18.93,0,0,0,.979-8.3,5.667,5.667,0,0,1,2.954,4.966Z" transform="translate(0)"/>
    <path id="Path_16667" data-name="Path 16667" d="M46.545,37.7a3.848,3.848,0,0,1-3.082,0,1,1,0,0,0-.926,1.773,5.819,5.819,0,0,0,4.926,0,1,1,0,0,0-.918-1.777Z" transform="translate(-7.778 -6.525)"/>
  </g>
</svg>