<svg xmlns="http://www.w3.org/2000/svg" width="19.957" height="19.957" viewBox="0 0 19.957 19.957">
  <g id="svgexport-10_16_" data-name="svgexport-10 (16)" transform="translate(0 0)">
    <g id="Home_Delivery" data-name="Home Delivery" transform="translate(0 0)">
      <path id="Path_17217" data-name="Path 17217" d="M52,12h1.247v2.495H52Z" transform="translate(-35.785 -8.258)" fill="#97191d"/>
      <path id="Path_17218" data-name="Path 17218" d="M50.1,1.924,47.291.053a.312.312,0,0,0-.346,0L44.139,1.924A.312.312,0,0,0,44,2.183V5.925a.312.312,0,0,0,.312.312h1.559V3.43a.312.312,0,0,1,.312-.312h1.871a.312.312,0,0,1,.312.312V6.237h1.559a.312.312,0,0,0,.312-.312V2.183a.312.312,0,0,0-.139-.259Z" transform="translate(-30.279 0)" fill="#97191d"/>
      <circle id="Ellipse_92" data-name="Ellipse 92" cx="0.624" cy="0.624" r="0.624" transform="translate(11.538 18.71)" fill="#97191d"/>
      <circle id="Ellipse_93" data-name="Ellipse 93" cx="0.624" cy="0.624" r="0.624" transform="translate(6.86 18.71)" fill="#97191d"/>
      <path id="Path_17219" data-name="Path 17219" d="M21.742,47h-3.43a.313.313,0,0,0-.312.312v4.054a.313.313,0,0,0,.312.312h.312a1.247,1.247,0,1,1,2.495,0h.936V47.312A.312.312,0,0,0,21.742,47Z" transform="translate(-12.387 -32.344)" fill="#97191d"/>
      <path id="Path_17220" data-name="Path 17220" d="M38.247,49H37v1.247h2.361l-.845-1.095A.309.309,0,0,0,38.247,49Z" transform="translate(-25.462 -33.72)" fill="#97191d"/>
      <path id="Path_17221" data-name="Path 17221" d="M33.624,50.559V49H33v4.054h.624a1.247,1.247,0,1,1,2.495,0h.312a.313.313,0,0,0,.312-.312V50.871H33.936A.313.313,0,0,1,33.624,50.559Z" transform="translate(-22.709 -33.72)" fill="#97191d"/>
      <path id="Path_17222" data-name="Path 17222" d="M9.827,30.851,5.15,28.044a.311.311,0,0,0-.321,0L.151,30.851A.312.312,0,0,0,0,31.118v.936a.312.312,0,0,0,.472.267l4.517-2.71,4.517,2.71a.312.312,0,0,0,.472-.267v-.936a.312.312,0,0,0-.151-.267Z" transform="translate(0 -19.269)" fill="#97191d"/>
      <path id="Path_17223" data-name="Path 17223" d="M8.678,38.462h2.807v-.717L7.742,35.5,4,37.742v5.71a.313.313,0,0,0,.312.312H7.8a.864.864,0,0,1-.056-.312V39.4A.938.938,0,0,1,8.678,38.462Z" transform="translate(-2.753 -24.43)" fill="#97191d"/>
      <path id="Path_17224" data-name="Path 17224" d="M28.549,23.613h4.989a1.559,1.559,0,0,0,0-3.118H23.559a.936.936,0,0,1,0-1.871h4.366a.312.312,0,0,0,0-.624H23.559a1.559,1.559,0,0,0,0,3.118h9.979a.936.936,0,0,1,0,1.871H28.549a1.871,1.871,0,1,0,0,3.742h3.734a2.183,2.183,0,1,1,0,4.366h-2.27a.312.312,0,0,0,0,.624h2.27a2.807,2.807,0,1,0,0-5.613H28.549a1.247,1.247,0,1,1,0-2.495Z" transform="translate(-15.14 -12.387)" fill="#97191d"/>
    </g>
  </g>
</svg>
