<svg xmlns="http://www.w3.org/2000/svg" width="24.726" height="23.091" viewBox="0 0 24.726 23.091">
  <g id="Group_6169" data-name="Group 6169" transform="translate(0.1 -16.967)">
    <g id="Group_6122" data-name="Group 6122" transform="translate(0 37.505)">
      <g id="Group_6121" data-name="Group 6121">
        <path id="Path_16639" data-name="Path 16639" d="M24.117,443.733H.409a.409.409,0,0,0-.409.409v1.635a.409.409,0,0,0,.409.409H24.117a.408.408,0,0,0,.409-.409v-1.635A.408.408,0,0,0,24.117,443.733Zm-.409,1.635H.818v-.818H23.709v.818Z" transform="translate(0 -443.733)" fill="#97191d" stroke="#97191d" stroke-width="0.2"/>
      </g>
    </g>
    <g id="Group_6124" data-name="Group 6124" transform="translate(0.409 18.702)">
      <g id="Group_6123" data-name="Group 6123">
        <path id="Path_16640" data-name="Path 16640" d="M32.231,56.415,31,51.509a.409.409,0,0,0-.4-.309H10.17a.409.409,0,0,0-.4.309L8.547,56.415a.409.409,0,0,0,.4.508H31.834a.409.409,0,0,0,.4-.508ZM9.467,56.105l1.022-4.088h19.8l1.022,4.088Z" transform="translate(-8.535 -51.2)" fill="#97191d" stroke="#97191d" stroke-width="0.2"/>
      </g>
    </g>
    <g id="Group_6126" data-name="Group 6126" transform="translate(10.219 24.016)">
      <g id="Group_6125" data-name="Group 6125">
        <path id="Path_16641" data-name="Path 16641" d="M216.6,162.133v.818a1.226,1.226,0,1,1-2.453,0v-.818h-.818v.818a2.044,2.044,0,1,0,4.088,0v-.818Z" transform="translate(-213.333 -162.133)" fill="#97191d" stroke="#97191d" stroke-width="0.2"/>
      </g>
    </g>
    <g id="Group_6128" data-name="Group 6128" transform="translate(6.949 24.016)">
      <g id="Group_6127" data-name="Group 6127">
        <path id="Path_16642" data-name="Path 16642" d="M148.336,162.133v.818a1.226,1.226,0,1,1-2.453,0v-.818h-.818v.818a2.044,2.044,0,1,0,4.088,0v-.818Z" transform="translate(-145.066 -162.133)" fill="#97191d" stroke="#97191d" stroke-width="0.2"/>
      </g>
    </g>
    <g id="Group_6130" data-name="Group 6130" transform="translate(3.679 24.016)">
      <g id="Group_6129" data-name="Group 6129">
        <path id="Path_16643" data-name="Path 16643" d="M80.07,162.133v.818a1.226,1.226,0,1,1-2.453,0v-.818H76.8v.818a2.044,2.044,0,1,0,4.088,0v-.818Z" transform="translate(-76.8 -162.133)" fill="#97191d" stroke="#97191d" stroke-width="0.2"/>
      </g>
    </g>
    <g id="Group_6132" data-name="Group 6132" transform="translate(0.409 24.016)">
      <g id="Group_6131" data-name="Group 6131">
        <path id="Path_16644" data-name="Path 16644" d="M11.8,162.133v.818a1.226,1.226,0,1,1-2.453,0v-.818H8.533v.818a2.044,2.044,0,1,0,4.088,0v-.818Z" transform="translate(-8.533 -162.133)" fill="#97191d" stroke="#97191d" stroke-width="0.2"/>
      </g>
    </g>
    <g id="Group_6134" data-name="Group 6134" transform="translate(20.03 24.016)">
      <g id="Group_6133" data-name="Group 6133">
        <path id="Path_16645" data-name="Path 16645" d="M421.4,162.133v.818a1.226,1.226,0,0,1-2.453,0v-.818h-.818v.818a2.044,2.044,0,1,0,4.088,0v-.818Z" transform="translate(-418.133 -162.133)" fill="#97191d" stroke="#97191d" stroke-width="0.2"/>
      </g>
    </g>
    <g id="Group_6136" data-name="Group 6136" transform="translate(16.76 24.016)">
      <g id="Group_6135" data-name="Group 6135">
        <path id="Path_16646" data-name="Path 16646" d="M353.136,162.133v.818a1.226,1.226,0,1,1-2.453,0v-.818h-.818v.818a2.044,2.044,0,1,0,4.088,0v-.818Z" transform="translate(-349.866 -162.133)" fill="#97191d" stroke="#97191d" stroke-width="0.2"/>
      </g>
    </g>
    <g id="Group_6138" data-name="Group 6138" transform="translate(13.489 24.016)">
      <g id="Group_6137" data-name="Group 6137">
        <path id="Path_16647" data-name="Path 16647" d="M284.87,162.133v.818a1.226,1.226,0,1,1-2.453,0v-.818H281.6v.818a2.044,2.044,0,1,0,4.088,0v-.818Z" transform="translate(-281.6 -162.133)" fill="#97191d" stroke="#97191d" stroke-width="0.2"/>
      </g>
    </g>
    <g id="Group_6140" data-name="Group 6140" transform="translate(10.219 19.111)">
      <g id="Group_6139" data-name="Group 6139">
        <rect id="Rectangle_134" data-name="Rectangle 134" width="0.818" height="4.905" fill="#97191d" stroke="#97191d" stroke-width="0.2"/>
      </g>
    </g>
    <g id="Group_6142" data-name="Group 6142" transform="translate(13.489 19.111)">
      <g id="Group_6141" data-name="Group 6141">
        <rect id="Rectangle_135" data-name="Rectangle 135" width="0.818" height="4.905" fill="#97191d" stroke="#97191d" stroke-width="0.2"/>
      </g>
    </g>
    <g id="Group_6144" data-name="Group 6144" transform="translate(6.95 19.079)">
      <g id="Group_6143" data-name="Group 6143" transform="translate(0 0)">
        <rect id="Rectangle_136" data-name="Rectangle 136" width="4.921" height="0.818" transform="translate(0 4.904) rotate(-85.239)" fill="#97191d" stroke="#97191d" stroke-width="0.2"/>
      </g>
    </g>
    <g id="Group_6146" data-name="Group 6146" transform="translate(3.685 19.043)">
      <g id="Group_6145" data-name="Group 6145" transform="translate(0 0)">
        <rect id="Rectangle_137" data-name="Rectangle 137" width="4.973" height="0.818" transform="matrix(0.165, -0.986, 0.986, 0.165, 0, 4.906)" fill="#97191d" stroke="#97191d" stroke-width="0.2"/>
      </g>
    </g>
    <g id="Group_6148" data-name="Group 6148" transform="translate(16.351 19.077)">
      <g id="Group_6147" data-name="Group 6147" transform="translate(0 0)">
        <rect id="Rectangle_138" data-name="Rectangle 138" width="0.817" height="4.921" transform="translate(0 0.068) rotate(-4.761)" fill="#97191d" stroke="#97191d" stroke-width="0.2"/>
      </g>
    </g>
    <g id="Group_6150" data-name="Group 6150" transform="translate(19.218 19.043)">
      <g id="Group_6149" data-name="Group 6149" transform="translate(0 0)">
        <rect id="Rectangle_139" data-name="Rectangle 139" width="0.818" height="4.973" transform="translate(0 0.134) rotate(-9.462)" fill="#97191d" stroke="#97191d" stroke-width="0.2"/>
      </g>
    </g>
    <g id="Group_6152" data-name="Group 6152" transform="translate(1.635 17.067)">
      <g id="Group_6151" data-name="Group 6151">
        <path id="Path_16648" data-name="Path 16648" d="M54.981,17.067H34.543a.409.409,0,0,0-.409.409v1.635h.818V17.885H54.572v1.226h.818V17.476A.409.409,0,0,0,54.981,17.067Z" transform="translate(-34.134 -17.067)" fill="#97191d" stroke="#97191d" stroke-width="0.2"/>
      </g>
    </g>
    <g id="Group_6154" data-name="Group 6154" transform="translate(1.635 26.469)">
      <g id="Group_6153" data-name="Group 6153">
        <rect id="Rectangle_140" data-name="Rectangle 140" width="0.818" height="11.037" fill="#97191d" stroke="#97191d" stroke-width="0.2"/>
      </g>
    </g>
    <g id="Group_6156" data-name="Group 6156" transform="translate(22.073 26.469)">
      <g id="Group_6155" data-name="Group 6155">
        <rect id="Rectangle_141" data-name="Rectangle 141" width="0.818" height="11.445" fill="#97191d" stroke="#97191d" stroke-width="0.2"/>
      </g>
    </g>
    <g id="Group_6158" data-name="Group 6158" transform="translate(3.27 28.513)">
      <g id="Group_6157" data-name="Group 6157">
        <path id="Path_16649" data-name="Path 16649" d="M80.121,256H68.676a.409.409,0,0,0-.409.409v6.54a.409.409,0,0,0,.409.409H80.121a.408.408,0,0,0,.409-.409v-6.54A.408.408,0,0,0,80.121,256Zm-.409,6.54H69.085v-5.723H79.713Z" transform="translate(-68.267 -256)" fill="#97191d" stroke="#97191d" stroke-width="0.2"/>
      </g>
    </g>
    <g id="Group_6160" data-name="Group 6160" transform="translate(16.351 28.513)">
      <g id="Group_6159" data-name="Group 6159">
        <path id="Path_16650" data-name="Path 16650" d="M345.83,256h-4.088a.408.408,0,0,0-.409.409V265.4a.408.408,0,0,0,.409.409h4.088a.408.408,0,0,0,.409-.409v-8.993A.408.408,0,0,0,345.83,256Zm-.409,8.993h-3.27v-8.175h3.27Z" transform="translate(-341.334 -256)" fill="#97191d" stroke="#97191d" stroke-width="0.2"/>
      </g>
    </g>
    <g id="Group_6162" data-name="Group 6162" transform="translate(5.844 30.267)">
      <g id="Group_6161" data-name="Group 6161" transform="translate(0 0)">
        <rect id="Rectangle_142" data-name="Rectangle 142" width="2.312" height="0.818" transform="translate(0 1.635) rotate(-45)" fill="#97191d" stroke="#97191d" stroke-width="0.2"/>
      </g>
    </g>
    <g id="Group_6164" data-name="Group 6164" transform="translate(6.661 29.857)">
      <g id="Group_6163" data-name="Group 6163" transform="translate(0 0)">
        <rect id="Rectangle_143" data-name="Rectangle 143" width="5.203" height="0.818" transform="translate(0 3.679) rotate(-45)" fill="#97191d" stroke="#97191d" stroke-width="0.2"/>
      </g>
    </g>
    <g id="Group_6166" data-name="Group 6166" transform="translate(9.521 31.903)">
      <g id="Group_6165" data-name="Group 6165" transform="translate(0 0)">
        <rect id="Rectangle_144" data-name="Rectangle 144" width="2.312" height="0.818" transform="translate(0 1.635) rotate(-45)" fill="#97191d" stroke="#97191d" stroke-width="0.2"/>
      </g>
    </g>
  </g>
</svg>
