<svg xmlns="http://www.w3.org/2000/svg" width="587.74" height="85.58" viewBox="0 0 587.74 85.58">
  <g id="Group_6455" data-name="Group 6455" transform="translate(-81.13 -58.589)" opacity="0.31">
    <path id="Path_16672" data-name="Path 16672" d="M168.74,141.773l-87.61-.134s4.364-5.665,9.168-6.367c0,0,9.382-27.791,25.019-27.965,14.538-.162,20.339,17.131,20.339,17.131s6.746-7.742,13.176-4.187,10.057,13.709,10.057,13.709S166.12,137.87,168.74,141.773Z" fill="#ebebeb"/>
    <path id="Path_16673" data-name="Path 16673" d="M558.081,94.123l110.789.17s.01-7.081-15.252-8.489c0,0-13.887-30.96-35.167-26.837C605.2,61.535,598.4,79.716,598.4,79.716s-9.989-14.33-18-11.572S567.6,86.133,567.6,86.133,559.338,90.123,558.081,94.123Z" fill="#ebebeb"/>
    <path id="Path_16674" data-name="Path 16674" d="M211.454,90.308l75.333.116s-7.1-6.628-10.258-6.633S264.181,61.559,252.4,62.486s-18.062,17.459-18.062,17.459S220.018,75.433,211.454,90.308Z" transform="translate(73)" fill="#ebebeb"/>
    <path id="Path_16675" data-name="Path 16675" d="M499.748,144.07l64.422.1s-3.2-4.175-6.727-4.7c0,0-6.836-20.457-18.334-20.62-10.69-.152-14.995,12.551-14.995,12.551s-4.943-5.708-9.678-3.109-7.427,10.058-7.427,10.058S501.684,141.206,499.748,144.07Z" fill="#ebebeb"/>
  </g>
</svg>
