<svg xmlns="http://www.w3.org/2000/svg" width="22.459" height="18.249" viewBox="0 0 22.459 18.249">
  <g id="_5296514_bird_tweet_twitter_twitter_logo_icon" data-name="5296514_bird_tweet_twitter_twitter logo_icon" transform="translate(4 -7.987)">
    <path id="Path_16601" data-name="Path 16601" d="M7.063,66.236A13.022,13.022,0,0,0,20.173,53.125c0-.2,0-.4-.013-.6a9.376,9.376,0,0,0,2.3-2.385,9.2,9.2,0,0,1-2.647.725,4.625,4.625,0,0,0,2.026-2.549,9.236,9.236,0,0,1-2.926,1.118,4.612,4.612,0,0,0-7.853,4.2,13.088,13.088,0,0,1-9.5-4.814A4.63,4.63,0,0,0,2.99,54.979,4.573,4.573,0,0,1,.9,54.4v.058a4.623,4.623,0,0,0,3.7,4.517,4.6,4.6,0,0,1-2.081.079,4.622,4.622,0,0,0,4.3,3.2A9.248,9.248,0,0,1,1.1,64.233,9.373,9.373,0,0,1,0,64.166a13.046,13.046,0,0,0,7.063,2.066" transform="translate(-4 -40)" fill="#1da1f2"/>
  </g>
</svg>
