<svg id="Iconly_Bold_Video" data-name="Iconly/Bold/Video" xmlns="http://www.w3.org/2000/svg" width="24" height="18.001" viewBox="0 0 24 18.001">
  <g id="Video">
    <path id="Video-2" data-name="Video" d="M4.936,18A4.692,4.692,0,0,1,0,13.128V4.873A4.692,4.692,0,0,1,4.936,0h6.951a4.692,4.692,0,0,1,4.936,4.873v8.255A4.692,4.692,0,0,1,11.887,18Zm16.613-2.856-1.777-.9A1.949,1.949,0,0,1,18.706,12.5v-7a1.942,1.942,0,0,1,1.066-1.746l1.778-.9a1.661,1.661,0,0,1,1.648.077A1.719,1.719,0,0,1,24,4.395v9.211a1.716,1.716,0,0,1-.8,1.463,1.681,1.681,0,0,1-.892.259A1.661,1.661,0,0,1,21.548,15.145Z" fill="#121212"/>
  </g>
</svg>
