<svg xmlns="http://www.w3.org/2000/svg" width="34.742" height="30.969" viewBox="0 0 34.742 30.969">
  <g id="svgexport-7_7_" data-name="svgexport-7 (7)" transform="translate(0 -33.234)">
    <g id="Group_6484" data-name="Group 6484" transform="translate(0 33.234)">
      <g id="Group_6483" data-name="Group 6483" transform="translate(0 0)">
        <path id="Path_16968" data-name="Path 16968" d="M195.425,37.773l-21.278-4.5a1.678,1.678,0,0,0-1.983,1.291l-.4,2.6,24.551,5.2.4-2.6A1.678,1.678,0,0,0,195.425,37.773Z" transform="translate(-162.009 -33.234)" fill="#fff"/>
        <path id="Path_16969" data-name="Path 16969" d="M24.468,169.2a1.694,1.694,0,0,0-2.079-1.176l-4.039,1.121L8.827,167.13,7.78,172.078l-6.543,1.816a1.694,1.694,0,0,0-1.176,2.078l3.688,13.288a1.694,1.694,0,0,0,2.079,1.176l21.153-5.87a1.694,1.694,0,0,0,1.176-2.079l-.633-2.281,2.372.5a1.677,1.677,0,0,0,1.983-1.29l1.5-7.093-8.545-1.808Zm2.443,6.754.523-2.472a.691.691,0,0,1,.816-.531l2.472.523a.69.69,0,0,1,.531.816l-.523,2.472a.69.69,0,0,1-.816.531l-2.472-.523A.691.691,0,0,1,26.911,175.954ZM1.6,175.22,7.458,173.6l13.812-3.833,1.486-.413a.309.309,0,0,1,.081-.011.319.319,0,0,1,.3.228l.175.628.547,1.97L2.109,178.2l-.721-2.6A.317.317,0,0,1,1.6,175.22Zm25.224,7.635a.317.317,0,0,1-.217.384L5.459,189.11a.308.308,0,0,1-.081.011.319.319,0,0,1-.3-.228l-2.151-7.751,21.753-6.037L26,179.885Z" transform="translate(0 -159.529)" fill="#fff"/>
        <path id="Path_16970" data-name="Path 16970" d="M92.879,445.105a.691.691,0,0,0-.847-.479l-2.47.686a.69.69,0,0,0-.479.847l.685,2.47a.69.69,0,0,0,.847.479l2.47-.685a.69.69,0,0,0,.479-.847Z" transform="translate(-84.001 -421.248)" fill="#fff"/>
      </g>
    </g>
  </g>
</svg>
